<svg viewBox="0 0 32 32" version="1.1" xmlns="http://www.w3.org/2000/svg" xmlns:xlink="http://www.w3.org/1999/xlink">
    <g id="instagram-gray" stroke="none" stroke-width="1" fill="none" fill-rule="evenodd">
        <rect id="Rectangle" x="0" y="0" width="32" height="32"></rect>
        <path d="M16.0000198,6 C18.7158369,6 19.0563809,6.01151157 20.1229872,6.06017771 C21.1873706,6.10872478 21.9143063,6.27778605 22.55038,6.5250069 C23.2079684,6.78052401 23.7656443,7.12245728 24.3216134,7.67838663 C24.8775427,8.23435568 25.219476,8.79203161 25.4750328,9.44962002 C25.722214,10.0856937 25.8912752,10.8126294 25.9398223,11.8770128 C25.9884884,12.9436191 26,13.2841631 26,16.0000198 C26,18.7158369 25.9884884,19.0563809 25.9398223,20.1229872 C25.8912752,21.1873706 25.722214,21.9143063 25.4750328,22.55038 C25.219476,23.2079684 24.8775427,23.7656443 24.3216134,24.3216134 C23.7656443,24.8775427 23.2079684,25.219476 22.55038,25.4750328 C21.9143063,25.722214 21.1873706,25.8912752 20.1229872,25.9398223 C19.0563809,25.9884884 18.7158369,26 16.0000198,26 C13.2841631,26 12.9436191,25.9884884 11.8770128,25.9398223 C10.8126294,25.8912752 10.0856937,25.722214 9.44962002,25.4750328 C8.79203161,25.219476 8.23435568,24.8775427 7.67838663,24.3216134 C7.12245728,23.7656443 6.78052401,23.2079684 6.5250069,22.55038 C6.27778605,21.9143063 6.10872478,21.1873706 6.06017771,20.1229872 C6.01151157,19.0563809 6,18.7158369 6,16.0000198 C6,13.2841631 6.01151157,12.9436191 6.06017771,11.8770128 C6.10872478,10.8126294 6.27778605,10.0856937 6.5250069,9.44962002 C6.78052401,8.79203161 7.12245728,8.23435568 7.67838663,7.67838663 C8.23435568,7.12245728 8.79203161,6.78052401 9.44962002,6.5250069 C10.0856937,6.27778605 10.8126294,6.10872478 11.8770128,6.06017771 C12.9436191,6.01151157 13.2841631,6 16.0000198,6 Z M16.0000198,7.80179858 C13.3298918,7.80179858 13.0136015,7.81200021 11.9591419,7.86011063 C10.9841517,7.9045691 10.4546593,8.06747764 10.1022862,8.2044256 C9.635512,8.38583204 9.30239103,8.60252738 8.95247906,8.95247906 C8.60252738,9.30239103 8.38583204,9.635512 8.2044256,10.1022862 C8.06747764,10.4546593 7.9045691,10.9841517 7.86011063,11.9591419 C7.81200021,13.0136015 7.80179858,13.3298918 7.80179858,16.0000198 C7.80179858,18.6701082 7.81200021,18.9863985 7.86011063,20.0408581 C7.9045691,21.0158483 8.06747764,21.5453407 8.2044256,21.8977138 C8.38583204,22.364488 8.60256708,22.697609 8.95247906,23.0475209 C9.30239103,23.3974726 9.635512,23.614168 10.1022862,23.7955744 C10.4546593,23.9325224 10.9841517,24.0954309 11.9591419,24.1398894 C13.0134824,24.1879998 13.3296933,24.1982014 16.0000198,24.1982014 C18.6703067,24.1982014 18.9865573,24.1879998 20.0408581,24.1398894 C21.0158483,24.0954309 21.5453407,23.9325224 21.8977138,23.7955744 C22.364488,23.614168 22.697609,23.3974726 23.0475209,23.0475209 C23.3974726,22.697609 23.614168,22.364488 23.7955744,21.8977138 C23.9325224,21.5453407 24.0954309,21.0158483 24.1398894,20.0408581 C24.1879998,18.9863985 24.1982014,18.6701082 24.1982014,16.0000198 C24.1982014,13.3298918 24.1879998,13.0136015 24.1398894,11.9591419 C24.0954309,10.9841517 23.9325224,10.4546593 23.7955744,10.1022862 C23.614168,9.635512 23.3974726,9.30239103 23.0475209,8.95247906 C22.697609,8.60252738 22.364488,8.38583204 21.8977138,8.2044256 C21.5453407,8.06747764 21.0158483,7.9045691 20.0408581,7.86011063 C18.9863985,7.81200021 18.6701082,7.80179858 16.0000198,7.80179858 Z M16.0000198,19.3333333 C17.8409578,19.3333333 19.3333333,17.8409578 19.3333333,16.0000198 C19.3333333,14.1590422 17.8409578,12.6666667 16.0000198,12.6666667 C14.1590422,12.6666667 12.6666667,14.1590422 12.6666667,16.0000198 C12.6666667,17.8409578 14.1590422,19.3333333 16.0000198,19.3333333 Z M16.0000198,10.8648681 C18.8360733,10.8648681 21.1351319,13.1639267 21.1351319,16.0000198 C21.1351319,18.8360733 18.8360733,21.1351319 16.0000198,21.1351319 C13.1639267,21.1351319 10.8648681,18.8360733 10.8648681,16.0000198 C10.8648681,13.1639267 13.1639267,10.8648681 16.0000198,10.8648681 Z M22.5380348,10.6619866 C22.5380348,11.3247354 22.0007621,11.8619684 21.3380134,11.8619684 C20.6753043,11.8619684 20.1380316,11.3247354 20.1380316,10.6619866 C20.1380316,9.99923785 20.6753043,9.46196518 21.3380134,9.46196518 C22.0007621,9.46196518 22.5380348,9.99923785 22.5380348,10.6619866 Z" fill="#231F20"></path>
    </g>
</svg>
