<svg xmlns="http://www.w3.org/2000/svg" viewBox="0 0 32 32">
  <g fill="none" fill-rule="evenodd">
    <rect width="32" height="32"/>
    <path fill="#FFF" fill-rule="nonzero" d="M4 10L9 10 9 26 4 26 4 10zM6.65 2.19C7.80138899 2.19006424 8.83880347 2.88529901 9.27656563 3.95022197 9.71432779 5.01514493 9.4658001 6.23899711 8.64733373 7.04881772 7.82886735 7.85863832 6.60244502 8.0941557 5.54223077 7.64510963 4.48201653 7.19606355 3.79783744 6.15132475 3.81 5 3.82644557 3.4432396 5.09315274 2.18991314 6.65 2.19L6.65 2.19zM12 10L17 10 17 12 17.3 12C18.3823165 10.4759502 20.1307953 9.56450912 22 9.55 27 9.55 28 12.91 28 17.16L28 26 23 26 23 18.14C23 16.31 22.71 13.96 20.2 13.96 17.69 13.96 17 15.95 17 18L17 26 12 26 12 10z"/>
  </g>
</svg>
