<svg xmlns="http://www.w3.org/2000/svg" data-name="Layer 1" viewBox="0 0 512 640" x="0px" y="0px"><title>Message</title><g data-name="Group"><path data-name="Path" d="M214.016,143.488c36.488-15.4,49.1-41.661,45.342-61.118-2.373-11.715-10.2-18.991-20.43-18.991-6.085,0-13.257,2.774-20.2,7.81a8,8,0,0,1-9.483-.062c-7.032-5.246-14.033-8.019-20.247-8.019-10.265,0-18.037,7.357-20.282,19.2C164.938,102.019,177.53,128.4,214.016,143.488Z"/><polygon data-name="Path" points="404 262.75 446.452 232.126 404 212.929 404 262.75"/><path data-name="Compound Path" d="M268.673,360.511,388,274.292V34H124V274.292l119.227,86.219A21.518,21.518,0,0,0,268.673,360.511ZM353.424,218a8,8,0,0,1-8,8H166.576a8,8,0,0,1,0-16H345.424A8,8,0,0,1,353.424,218Zm0,32a8,8,0,0,1-8,8H166.576a8,8,0,0,1,0-16H345.424A8,8,0,0,1,353.424,250ZM158.576,185a8,8,0,0,1,8-8h88.848a8,8,0,0,1,0,16H166.576A8,8,0,0,1,158.576,185ZM153,79.309c3.708-19.555,17.84-32.2,36-32.2,8.278,0,16.7,2.673,25.1,7.955,8.306-5.042,16.8-7.684,24.824-7.684,18.038,0,32.216,12.5,36.12,31.855l.012.058c5.082,26.184-10.469,60.983-56.67,79.7q-.235.095-.474.174a11.394,11.394,0,0,1-7.763,0c-.143-.047-.284-.1-.424-.154C163.5,140.67,147.927,105.765,153,79.309ZM158.576,283a8,8,0,0,1,8-8H345.424a8,8,0,0,1,0,16H166.576A8,8,0,0,1,158.576,283Z"/><path data-name="Path" d="M443.571,475.049,303.108,355.543l-24.879,17.95a37.958,37.958,0,0,1-44.46.015l-24.832-17.892L68.431,475.049A21.925,21.925,0,0,0,79.27,478H432.73A21.929,21.929,0,0,0,443.571,475.049Z"/><polygon data-name="Path" points="65.548 232.126 108 262.75 108 212.929 65.548 232.126"/><path data-name="Path" d="M455,455.831V246.166L316.673,345.9,453.811,462.553A21.99,21.99,0,0,0,455,455.831Z"/><path data-name="Path" d="M57,455.831a22.01,22.01,0,0,0,1.19,6.725L195.37,345.934,57,246.166Z"/></g></svg>
