<svg width="324" height="324" viewBox="0 0 324 324" fill="none" xmlns="http://www.w3.org/2000/svg">
<circle cx="162" cy="162" r="159" fill="white" stroke="black" stroke-width="6"/>
<path d="M210.881 102.213C209.37 102.213 208.142 103.444 208.142 104.959C208.142 106.474 209.37 107.705 210.881 107.705C212.393 107.705 213.621 106.474 213.621 104.959C213.621 103.444 212.393 102.213 210.881 102.213ZM210.881 105.461C210.606 105.461 210.381 105.235 210.381 104.959C210.381 104.683 210.606 104.457 210.881 104.457C211.157 104.457 211.382 104.683 211.382 104.959C211.382 105.235 211.158 105.461 210.881 105.461ZM219.95 102.356L219.842 102.296L219.893 102.193C221.07 99.8482 220.947 97.0615 219.631 94.8366C219.989 93.9304 220.182 92.9771 220.205 91.9929C220.31 87.41 216.678 83.5936 212.106 83.4881C212.093 83.4881 212.079 83.4881 212.066 83.4881C210.559 81.3736 208.131 80.063 205.51 80.003C200.944 79.8812 197.132 83.5384 197.026 88.1213C196.971 90.4388 197.902 92.6945 199.656 94.3786C200.081 94.7375 200.805 95.2637 201.534 95.7606L196.693 99.6387C188.794 105.967 182.543 114.251 178.614 123.593L171.925 139.501L159.427 146.889L136.815 131.596C119.565 119.944 96.0639 124.525 84.4275 141.812C72.8088 159.097 77.3789 182.656 94.6092 194.324L126.497 216.141V182.463L164.603 208.049L168.201 223.673H162.137V226.921H189.677V223.673H171.527L167.95 208.135L198.497 188.103C213.111 177.95 221.837 161.26 221.837 143.458C221.837 134.538 219.629 125.714 215.466 117.907C216.582 116.715 217.28 115.124 217.28 113.363V111.765H222.706L224.253 111.726L224.326 110.179C224.476 106.971 222.759 103.9 219.95 102.356ZM214.039 113.363C214.039 115.244 212.511 116.775 210.635 116.775C209.07 116.775 207.713 115.711 207.334 114.191L205.153 105.436C204.834 104.157 205.26 102.832 206.264 101.981L208.728 99.8872L215.832 103.796L214.104 109.685L214.039 113.363ZM205.435 83.2461C207.246 83.2883 208.908 84.3131 209.77 85.9208L210.285 86.8806L211.366 86.7669C211.583 86.7442 211.798 86.7328 212.03 86.7328C213.379 86.7653 214.635 87.3207 215.568 88.3C216.5 89.2792 216.995 90.5638 216.965 91.9182C216.945 92.7254 216.739 93.4984 216.351 94.2146L215.837 95.1597L216.506 96.0026C217.572 97.3457 217.766 99.2019 217 100.733L205.066 94.1675C204.529 93.8882 202.474 92.5126 201.822 91.9653C200.784 90.965 200.23 89.6268 200.264 88.196C200.329 85.4011 202.645 83.2331 205.435 83.2461ZM196.685 185.409L166.803 205.005L165.909 205.015L111.841 168.711C110.3 167.676 109.256 166.103 108.899 164.279C108.543 162.455 108.917 160.602 109.952 159.063C110.991 157.518 112.567 156.472 114.389 156.118C116.213 155.759 118.065 156.141 119.604 157.182L132.195 165.693L134.006 163.001L121.415 154.489C119.157 152.963 116.44 152.409 113.771 152.93C111.098 153.452 108.787 154.985 107.265 157.249C105.743 159.511 105.194 162.229 105.718 164.906C106.241 167.584 107.775 169.895 110.036 171.413L123.257 180.287V187.557L106.699 176.366C103.127 173.955 100.707 170.289 99.8839 166.046C99.0609 161.804 99.9341 157.497 102.343 153.919C104.75 150.334 108.408 147.904 112.638 147.081C116.863 146.257 121.163 147.133 124.735 149.551L140.951 160.513L142.762 157.82L126.547 146.858C122.258 143.953 117.098 142.902 112.021 143.891C106.941 144.882 102.549 147.798 99.6571 152.104C96.7654 156.399 95.7173 161.57 96.7055 166.664C97.6937 171.761 100.6 176.163 104.891 179.059L123.257 191.474V198.664L101.564 183.999C89.9987 176.168 86.932 160.363 94.7258 148.771C102.537 137.177 118.303 134.102 129.867 141.918L149.712 155.332L151.523 152.64L131.678 139.225C118.631 130.409 100.851 133.878 92.0399 146.956C83.2465 160.034 86.7052 177.859 99.7511 186.692L123.257 202.582V209.991L96.4284 191.633C80.6707 180.962 76.4911 159.425 87.1134 143.625C97.7504 127.823 119.233 123.633 135.004 134.287L159.309 150.727L174.127 141.968L174.13 141.973C177.315 140.008 180.994 139.229 184.77 139.713C189.112 140.273 193.105 142.704 195.728 146.386C198.398 150.132 199.412 154.811 198.511 159.218C197.792 162.733 195.731 165.674 191.913 168.69L160.521 190.253V167.221H157.281V196.418L193.831 171.306C198.38 167.718 200.803 164.191 201.686 159.871C202.768 154.58 201.558 148.977 198.367 144.497C195.223 140.083 190.418 137.165 185.185 136.491C182.131 136.094 179.138 136.411 176.335 137.374L181.6 124.85C185.318 116.005 191.237 108.165 198.717 102.172L204.487 97.5487L205.691 98.2112L204.175 99.5007C202.223 101.159 201.395 103.734 202.015 106.222L204.196 114.977C204.938 117.948 207.588 120.022 210.642 120.022C211.372 120.022 212.064 119.874 212.722 119.655C216.561 126.938 218.602 135.151 218.602 143.456C218.596 160.194 210.392 175.887 196.685 185.409ZM217.825 108.517L218.729 105.436C219.819 106.156 220.611 107.249 220.93 108.517H217.825Z" fill="black"/>
<path d="M106.656 264.008C106.544 265.368 106.488 266.584 106.488 267.656C106.488 268.408 106.512 269.016 106.56 269.48H106.008C105.688 267.672 105.208 266.4 104.568 265.664C103.928 264.928 103.032 264.56 101.88 264.56H101.088C100.592 264.56 100.232 264.6 100.008 264.68C99.784 264.76 99.632 264.92 99.552 265.16C99.472 265.384 99.432 265.752 99.432 266.264V272.312H100.272C101.12 272.312 101.76 272 102.192 271.376C102.64 270.752 102.952 270.008 103.128 269.144H103.68C103.632 269.816 103.608 270.568 103.608 271.4V272.552C103.608 273.368 103.656 274.504 103.752 275.96H103.2C102.864 273.848 101.888 272.792 100.272 272.792H99.432V278.312C99.432 278.952 99.496 279.424 99.624 279.728C99.768 280.016 100.008 280.208 100.344 280.304C100.696 280.4 101.248 280.456 102 280.472V281C100.032 280.952 98.568 280.928 97.608 280.928C96.808 280.928 95.8 280.944 94.584 280.976L93.816 281V280.52C94.344 280.488 94.728 280.424 94.968 280.328C95.224 280.232 95.392 280.048 95.472 279.776C95.568 279.504 95.616 279.064 95.616 278.456V266.552C95.616 265.944 95.568 265.504 95.472 265.232C95.392 264.96 95.224 264.776 94.968 264.68C94.728 264.584 94.344 264.52 93.816 264.488V264.008C95.544 264.056 98.152 264.08 101.64 264.08C103.992 264.08 105.664 264.056 106.656 264.008ZM116.035 268.256C116.755 268.256 117.299 268.472 117.667 268.904C118.035 269.336 118.219 269.856 118.219 270.464C118.219 271.056 118.043 271.544 117.691 271.928C117.355 272.296 116.907 272.48 116.347 272.48C115.803 272.48 115.371 272.344 115.051 272.072C114.731 271.784 114.571 271.408 114.571 270.944C114.571 270.176 114.923 269.552 115.627 269.072C115.563 269.056 115.467 269.048 115.339 269.048C115.179 269.048 115.051 269.064 114.955 269.096C114.347 269.192 113.827 269.56 113.395 270.2C112.979 270.84 112.771 271.496 112.771 272.168V278.528C112.771 279.264 112.947 279.776 113.299 280.064C113.667 280.352 114.243 280.496 115.027 280.496V281C114.803 281 114.619 280.992 114.475 280.976C112.843 280.928 111.755 280.904 111.211 280.904C110.779 280.904 109.795 280.928 108.259 280.976C108.131 280.992 107.971 281 107.779 281V280.496C108.355 280.496 108.755 280.376 108.979 280.136C109.203 279.88 109.315 279.424 109.315 278.768V271.208C109.315 270.472 109.203 269.936 108.979 269.6C108.755 269.264 108.355 269.096 107.779 269.096V268.592C108.291 268.64 108.787 268.664 109.267 268.664C110.691 268.664 111.859 268.552 112.771 268.328V270.56C113.075 269.872 113.515 269.32 114.091 268.904C114.667 268.472 115.315 268.256 116.035 268.256ZM122.15 281.168C121.126 281.168 120.358 280.904 119.846 280.376C119.35 279.848 119.102 279.152 119.102 278.288C119.102 277.568 119.286 276.976 119.654 276.512C120.038 276.032 120.494 275.664 121.022 275.408C121.566 275.152 122.254 274.88 123.086 274.592C123.966 274.288 124.606 274.016 125.006 273.776C125.422 273.52 125.63 273.176 125.63 272.744V270.872C125.63 270.2 125.47 269.68 125.15 269.312C124.846 268.928 124.366 268.736 123.71 268.736C122.942 268.736 122.358 268.928 121.958 269.312C122.406 269.472 122.75 269.712 122.99 270.032C123.246 270.352 123.374 270.728 123.374 271.16C123.374 271.704 123.19 272.136 122.822 272.456C122.454 272.776 122.006 272.936 121.478 272.936C120.918 272.936 120.486 272.76 120.182 272.408C119.878 272.056 119.726 271.616 119.726 271.088C119.726 270.64 119.83 270.264 120.038 269.96C120.262 269.64 120.598 269.344 121.046 269.072C121.478 268.816 122.006 268.616 122.63 268.472C123.27 268.328 123.966 268.256 124.718 268.256C125.502 268.256 126.182 268.336 126.758 268.496C127.334 268.656 127.814 268.928 128.198 269.312C128.55 269.664 128.782 270.096 128.894 270.608C129.022 271.12 129.086 271.816 129.086 272.696V279.224C129.086 279.608 129.118 279.88 129.182 280.04C129.262 280.2 129.406 280.28 129.614 280.28C129.854 280.28 130.142 280.144 130.478 279.872L130.718 280.28C129.998 280.872 129.118 281.168 128.078 281.168C127.198 281.168 126.582 280.992 126.23 280.64C125.878 280.288 125.694 279.816 125.678 279.224C124.878 280.52 123.702 281.168 122.15 281.168ZM123.998 279.632C124.622 279.632 125.166 279.304 125.63 278.648V273.728C125.438 274.048 125.03 274.4 124.406 274.784C123.782 275.184 123.31 275.584 122.99 275.984C122.67 276.384 122.51 276.96 122.51 277.712C122.51 278.368 122.646 278.856 122.918 279.176C123.19 279.48 123.55 279.632 123.998 279.632ZM140.332 268.256C141.548 268.256 142.428 268.568 142.972 269.192C143.244 269.496 143.436 269.888 143.548 270.368C143.66 270.848 143.716 271.496 143.716 272.312V278.768C143.716 279.424 143.828 279.88 144.052 280.136C144.292 280.376 144.692 280.496 145.252 280.496V281C143.652 280.936 142.596 280.904 142.084 280.904C141.604 280.904 140.564 280.936 138.964 281V280.496C139.444 280.496 139.78 280.376 139.972 280.136C140.164 279.88 140.26 279.424 140.26 278.768V271.304C140.26 270.648 140.148 270.152 139.924 269.816C139.716 269.48 139.332 269.312 138.772 269.312C138.116 269.312 137.556 269.584 137.092 270.128C136.628 270.656 136.396 271.312 136.396 272.096V278.768C136.396 279.424 136.492 279.88 136.684 280.136C136.876 280.376 137.212 280.496 137.692 280.496V281C136.22 280.936 135.228 280.904 134.716 280.904C134.236 280.904 133.132 280.936 131.404 281V280.496C131.98 280.496 132.38 280.376 132.604 280.136C132.828 279.88 132.94 279.424 132.94 278.768V271.208C132.94 270.472 132.828 269.936 132.604 269.6C132.38 269.264 131.98 269.096 131.404 269.096V268.592C131.916 268.64 132.412 268.664 132.892 268.664C134.316 268.664 135.484 268.552 136.396 268.328V270.488C137.116 269 138.428 268.256 140.332 268.256ZM158.338 279.248C158.594 279.632 158.802 279.92 158.962 280.112C159.122 280.288 159.33 280.416 159.586 280.496V281C158.306 280.936 157.466 280.904 157.066 280.904C156.538 280.904 155.506 280.936 153.97 281V280.496C154.194 280.496 154.37 280.456 154.498 280.376C154.626 280.296 154.69 280.184 154.69 280.04C154.69 279.96 154.65 279.84 154.57 279.68L152.194 275.384C152.034 275.112 151.866 274.928 151.69 274.832C151.514 274.736 151.29 274.672 151.018 274.64V278.768C151.018 279.424 151.122 279.88 151.33 280.136C151.538 280.376 151.914 280.496 152.458 280.496V281C150.858 280.936 149.818 280.904 149.338 280.904C148.794 280.904 147.69 280.936 146.026 281V280.496C146.586 280.496 146.978 280.376 147.202 280.136C147.442 279.88 147.562 279.424 147.562 278.768V265.088C147.562 264.352 147.442 263.816 147.202 263.48C146.978 263.144 146.586 262.976 146.026 262.976V262.472C146.538 262.52 147.034 262.544 147.514 262.544C148.906 262.544 150.074 262.432 151.018 262.208V274.184C151.338 274.152 151.61 274.088 151.834 273.992C152.074 273.896 152.282 273.752 152.458 273.56L154.282 271.784C154.81 271.256 155.074 270.768 155.074 270.32C155.074 269.952 154.906 269.664 154.57 269.456C154.234 269.232 153.786 269.104 153.226 269.072V268.592C154.106 268.64 155.042 268.664 156.034 268.664C157.362 268.664 158.298 268.64 158.842 268.592V269.072C157.898 269.28 156.898 269.896 155.842 270.92L154.306 272.504L158.338 279.248ZM164.495 278.768C164.495 279.424 164.607 279.88 164.831 280.136C165.055 280.376 165.455 280.496 166.031 280.496V281C164.367 280.936 163.295 280.904 162.815 280.904C162.271 280.904 161.167 280.936 159.503 281V280.496C160.063 280.496 160.455 280.376 160.679 280.136C160.919 279.88 161.039 279.424 161.039 278.768V265.088C161.039 264.352 160.919 263.816 160.679 263.48C160.455 263.144 160.063 262.976 159.503 262.976V262.472C160.015 262.52 160.511 262.544 160.991 262.544C162.383 262.544 163.551 262.432 164.495 262.208V278.768ZM170.173 262.4C170.845 262.4 171.373 262.568 171.757 262.904C172.157 263.224 172.357 263.672 172.357 264.248C172.357 264.824 172.157 265.28 171.757 265.616C171.373 265.936 170.845 266.096 170.173 266.096C169.501 266.096 168.965 265.936 168.565 265.616C168.181 265.28 167.989 264.824 167.989 264.248C167.989 263.672 168.181 263.224 168.565 262.904C168.965 262.568 169.501 262.4 170.173 262.4ZM172.045 278.768C172.045 279.424 172.157 279.88 172.381 280.136C172.621 280.376 173.021 280.496 173.581 280.496V281C171.981 280.936 170.917 280.904 170.389 280.904C169.893 280.904 168.781 280.936 167.053 281V280.496C167.629 280.496 168.029 280.376 168.253 280.136C168.477 279.88 168.589 279.424 168.589 278.768V271.208C168.589 270.472 168.477 269.936 168.253 269.6C168.029 269.264 167.629 269.096 167.053 269.096V268.592C167.565 268.64 168.061 268.664 168.541 268.664C169.965 268.664 171.133 268.552 172.045 268.328V278.768ZM183.551 268.256C184.767 268.256 185.647 268.568 186.191 269.192C186.463 269.496 186.655 269.888 186.767 270.368C186.879 270.848 186.935 271.496 186.935 272.312V278.768C186.935 279.424 187.047 279.88 187.271 280.136C187.511 280.376 187.911 280.496 188.471 280.496V281C186.871 280.936 185.815 280.904 185.303 280.904C184.823 280.904 183.783 280.936 182.183 281V280.496C182.663 280.496 182.999 280.376 183.191 280.136C183.383 279.88 183.479 279.424 183.479 278.768V271.304C183.479 270.648 183.367 270.152 183.143 269.816C182.935 269.48 182.551 269.312 181.991 269.312C181.335 269.312 180.775 269.584 180.311 270.128C179.847 270.656 179.615 271.312 179.615 272.096V278.768C179.615 279.424 179.711 279.88 179.903 280.136C180.095 280.376 180.431 280.496 180.911 280.496V281C179.439 280.936 178.447 280.904 177.935 280.904C177.455 280.904 176.351 280.936 174.623 281V280.496C175.199 280.496 175.599 280.376 175.823 280.136C176.047 279.88 176.159 279.424 176.159 278.768V271.208C176.159 270.472 176.047 269.936 175.823 269.6C175.599 269.264 175.199 269.096 174.623 269.096V268.592C175.135 268.64 175.631 268.664 176.111 268.664C177.535 268.664 178.703 268.552 179.615 268.328V270.488C180.335 269 181.647 268.256 183.551 268.256ZM191.933 277.64C192.717 277.64 193.285 277.92 193.637 278.48C193.797 278.72 193.925 279.016 194.021 279.368C194.117 279.72 194.165 280.088 194.165 280.472C194.165 281.304 193.949 282.056 193.517 282.728C193.101 283.4 192.477 283.928 191.645 284.312L191.429 283.88C191.893 283.688 192.293 283.392 192.629 282.992C192.981 282.592 193.189 282.184 193.253 281.768C193.301 281.576 193.325 281.392 193.325 281.216C193.325 281.056 193.301 280.904 193.253 280.76C192.901 281.144 192.437 281.336 191.861 281.336C191.301 281.336 190.845 281.176 190.493 280.856C190.141 280.52 189.965 280.064 189.965 279.488C189.965 278.944 190.149 278.504 190.517 278.168C190.885 277.816 191.357 277.64 191.933 277.64ZM210.434 263.672C211.394 263.672 212.21 263.808 212.882 264.08C213.554 264.352 214.21 264.736 214.85 265.232C215.026 265.376 215.178 265.448 215.306 265.448C215.626 265.448 215.834 264.968 215.93 264.008H216.482C216.418 265.096 216.386 267.032 216.386 269.816H215.834C215.69 268.632 215.498 267.728 215.258 267.104C215.018 266.48 214.61 265.936 214.034 265.472C213.634 265.088 213.17 264.8 212.642 264.608C212.114 264.4 211.562 264.296 210.986 264.296C209.37 264.296 208.17 265.088 207.386 266.672C206.602 268.24 206.21 270.2 206.21 272.552C206.21 274.888 206.618 276.84 207.434 278.408C208.25 279.976 209.466 280.76 211.082 280.76C211.626 280.76 212.162 280.664 212.69 280.472C213.234 280.264 213.69 279.968 214.058 279.584C214.65 279.136 215.058 278.576 215.282 277.904C215.522 277.232 215.706 276.248 215.834 274.952H216.386C216.386 277.848 216.418 279.864 216.482 281H215.93C215.882 280.488 215.81 280.128 215.714 279.92C215.634 279.696 215.514 279.584 215.354 279.584C215.226 279.584 215.058 279.648 214.85 279.776C214.13 280.288 213.442 280.68 212.786 280.952C212.13 281.208 211.338 281.336 210.41 281.336C208.714 281.336 207.226 280.992 205.946 280.304C204.682 279.616 203.698 278.624 202.994 277.328C202.29 276.016 201.938 274.456 201.938 272.648C201.938 270.888 202.298 269.328 203.018 267.968C203.738 266.608 204.738 265.552 206.018 264.8C207.314 264.048 208.786 263.672 210.434 263.672ZM221.572 281.168C220.548 281.168 219.78 280.904 219.268 280.376C218.772 279.848 218.524 279.152 218.524 278.288C218.524 277.568 218.708 276.976 219.076 276.512C219.46 276.032 219.916 275.664 220.444 275.408C220.988 275.152 221.676 274.88 222.508 274.592C223.388 274.288 224.028 274.016 224.428 273.776C224.844 273.52 225.052 273.176 225.052 272.744V270.872C225.052 270.2 224.892 269.68 224.572 269.312C224.268 268.928 223.788 268.736 223.132 268.736C222.364 268.736 221.78 268.928 221.38 269.312C221.828 269.472 222.172 269.712 222.412 270.032C222.668 270.352 222.796 270.728 222.796 271.16C222.796 271.704 222.612 272.136 222.244 272.456C221.876 272.776 221.428 272.936 220.9 272.936C220.34 272.936 219.908 272.76 219.604 272.408C219.3 272.056 219.148 271.616 219.148 271.088C219.148 270.64 219.252 270.264 219.46 269.96C219.684 269.64 220.02 269.344 220.468 269.072C220.9 268.816 221.428 268.616 222.052 268.472C222.692 268.328 223.388 268.256 224.14 268.256C224.924 268.256 225.604 268.336 226.18 268.496C226.756 268.656 227.236 268.928 227.62 269.312C227.972 269.664 228.204 270.096 228.316 270.608C228.444 271.12 228.508 271.816 228.508 272.696V279.224C228.508 279.608 228.54 279.88 228.604 280.04C228.684 280.2 228.828 280.28 229.036 280.28C229.276 280.28 229.564 280.144 229.9 279.872L230.14 280.28C229.42 280.872 228.54 281.168 227.5 281.168C226.62 281.168 226.004 280.992 225.652 280.64C225.3 280.288 225.116 279.816 225.1 279.224C224.3 280.52 223.124 281.168 221.572 281.168ZM223.42 279.632C224.044 279.632 224.588 279.304 225.052 278.648V273.728C224.86 274.048 224.452 274.4 223.828 274.784C223.204 275.184 222.732 275.584 222.412 275.984C222.092 276.384 221.932 276.96 221.932 277.712C221.932 278.368 222.068 278.856 222.34 279.176C222.612 279.48 222.972 279.632 223.42 279.632Z" fill="black"/>
</svg>
