<svg width="324" height="324" viewBox="0 0 324 324" fill="none" xmlns="http://www.w3.org/2000/svg">
<path d="M318 162C318 248.156 248.156 318 162 318C75.8436 318 6 248.156 6 162C6 75.8436 75.8436 6 162 6C248.156 6 318 75.8436 318 162Z" fill="white"/>
<path fill-rule="evenodd" clip-rule="evenodd" d="M324 162C324 251.47 251.47 324 162 324C72.5299 324 0 251.47 0 162C0 72.5299 72.5299 0 162 0C251.47 0 324 72.5299 324 162ZM162 318C248.156 318 318 248.156 318 162C318 75.8436 248.156 6 162 6C75.8436 6 6 75.8436 6 162C6 248.156 75.8436 318 162 318Z" fill="black"/>
<path d="M213.881 111.213C212.37 111.213 211.142 112.444 211.142 113.959C211.142 115.474 212.37 116.705 213.881 116.705C215.393 116.705 216.621 115.474 216.621 113.959C216.621 112.444 215.393 111.213 213.881 111.213ZM213.881 114.461C213.606 114.461 213.381 114.235 213.381 113.959C213.381 113.683 213.606 113.457 213.881 113.457C214.157 113.457 214.382 113.683 214.382 113.959C214.382 114.235 214.158 114.461 213.881 114.461ZM222.95 111.356L222.842 111.296L222.893 111.193C224.07 108.848 223.946 106.061 222.631 103.837C222.989 102.93 223.182 101.977 223.205 100.993C223.31 96.41 219.678 92.5936 215.106 92.4881C215.093 92.4881 215.079 92.4881 215.066 92.4881C213.559 90.3736 211.131 89.063 208.51 89.003C203.944 88.8812 200.133 92.5384 200.026 97.1213C199.971 99.4388 200.902 101.695 202.656 103.379C203.081 103.738 203.805 104.264 204.534 104.761L199.693 108.639C191.794 114.967 185.543 123.251 181.614 132.593L174.925 148.501L162.427 155.889L139.815 140.596C122.565 128.944 99.0639 133.525 87.4275 150.812C75.8088 168.097 80.3789 191.656 97.6092 203.324L129.497 225.141V191.463L167.603 217.049L171.201 232.673H165.137V235.921H192.677V232.673H174.527L170.95 217.135L201.497 197.103C216.111 186.95 224.837 170.26 224.837 152.458C224.837 143.538 222.629 134.714 218.466 126.907C219.582 125.715 220.28 124.124 220.28 122.363V120.765H225.706L227.253 120.726L227.326 119.179C227.476 115.971 225.759 112.9 222.95 111.356ZM217.039 122.363C217.039 124.244 215.511 125.775 213.635 125.775C212.07 125.775 210.713 124.711 210.334 123.191L208.153 114.436C207.834 113.157 208.26 111.832 209.264 110.981L211.728 108.887L218.832 112.796L217.104 118.685L217.039 122.363ZM208.435 92.2461C210.246 92.2883 211.908 93.3131 212.77 94.9208L213.285 95.8806L214.366 95.7669C214.583 95.7442 214.798 95.7328 215.03 95.7328C216.379 95.7653 217.635 96.3207 218.568 97.3C219.5 98.2792 219.995 99.5638 219.965 100.918C219.945 101.725 219.739 102.498 219.351 103.215L218.837 104.16L219.506 105.003C220.572 106.346 220.766 108.202 220 109.733L208.066 103.167C207.529 102.888 205.474 101.513 204.822 100.965C203.784 99.965 203.23 98.6268 203.264 97.196C203.329 94.4011 205.645 92.2331 208.435 92.2461ZM199.685 194.409L169.803 214.005L168.909 214.015L114.841 177.711C113.3 176.676 112.256 175.103 111.899 173.279C111.543 171.455 111.917 169.602 112.952 168.063C113.991 166.518 115.567 165.472 117.389 165.118C119.213 164.759 121.065 165.141 122.604 166.182L135.195 174.693L137.006 172.001L124.415 163.489C122.157 161.963 119.44 161.409 116.771 161.93C114.098 162.452 111.787 163.985 110.265 166.249C108.743 168.511 108.194 171.229 108.718 173.906C109.241 176.584 110.775 178.895 113.036 180.413L126.257 189.287V196.557L109.699 185.366C106.127 182.955 103.707 179.289 102.884 175.046C102.061 170.804 102.934 166.497 105.343 162.919C107.75 159.334 111.408 156.904 115.638 156.081C119.863 155.257 124.163 156.133 127.735 158.551L143.951 169.513L145.762 166.82L129.547 155.858C125.258 152.953 120.098 151.902 115.021 152.891C109.941 153.882 105.549 156.798 102.657 161.104C99.7654 165.399 98.7173 170.57 99.7055 175.664C100.694 180.761 103.6 185.163 107.891 188.059L126.257 200.474V207.664L104.564 192.999C92.9987 185.168 89.932 169.363 97.7258 157.771C105.537 146.177 121.303 143.102 132.867 150.918L152.712 164.332L154.523 161.64L134.678 148.225C121.631 139.409 103.851 142.878 95.0399 155.956C86.2465 169.034 89.7052 186.859 102.751 195.692L126.257 211.582V218.991L99.4284 200.633C83.6707 189.962 79.4911 168.425 90.1134 152.625C100.75 136.823 122.233 132.633 138.004 143.287L162.309 159.727L177.127 150.968L177.13 150.973C180.315 149.008 183.994 148.229 187.77 148.713C192.112 149.273 196.105 151.704 198.728 155.386C201.398 159.132 202.412 163.811 201.511 168.218C200.792 171.733 198.731 174.674 194.913 177.69L163.521 199.253V176.221H160.281V205.418L196.831 180.306C201.38 176.718 203.803 173.191 204.686 168.871C205.768 163.58 204.558 157.977 201.367 153.497C198.223 149.083 193.418 146.165 188.185 145.491C185.131 145.094 182.138 145.411 179.335 146.374L184.6 133.85C188.318 125.005 194.237 117.165 201.717 111.172L207.487 106.549L208.691 107.211L207.175 108.501C205.223 110.159 204.395 112.734 205.015 115.222L207.196 123.977C207.938 126.948 210.588 129.022 213.642 129.022C214.372 129.022 215.064 128.874 215.722 128.655C219.561 135.938 221.602 144.151 221.602 152.456C221.596 169.194 213.392 184.887 199.685 194.409ZM220.825 117.517L221.729 114.436C222.819 115.156 223.611 116.249 223.93 117.517H220.825Z" fill="black"/>
<path d="M109.789 270.027H103.039V277H99.5234V259.938H110.633V262.785H103.039V267.191H109.789V270.027Z" fill="black"/>
<path d="M119.27 267.496C118.809 267.434 118.402 267.402 118.051 267.402C116.77 267.402 115.93 267.836 115.531 268.703V277H112.145V264.32H115.344L115.438 265.832C116.117 264.668 117.059 264.086 118.262 264.086C118.637 264.086 118.988 264.137 119.316 264.238L119.27 267.496Z" fill="black"/>
<path d="M127.906 277C127.75 276.695 127.637 276.316 127.566 275.863C126.746 276.777 125.68 277.234 124.367 277.234C123.125 277.234 122.094 276.875 121.273 276.156C120.461 275.438 120.055 274.531 120.055 273.438C120.055 272.094 120.551 271.062 121.543 270.344C122.543 269.625 123.984 269.262 125.867 269.254H127.426V268.527C127.426 267.941 127.273 267.473 126.969 267.121C126.672 266.77 126.199 266.594 125.551 266.594C124.98 266.594 124.531 266.73 124.203 267.004C123.883 267.277 123.723 267.652 123.723 268.129H120.336C120.336 267.395 120.562 266.715 121.016 266.09C121.469 265.465 122.109 264.977 122.938 264.625C123.766 264.266 124.695 264.086 125.727 264.086C127.289 264.086 128.527 264.48 129.441 265.27C130.363 266.051 130.824 267.152 130.824 268.574V274.07C130.832 275.273 131 276.184 131.328 276.801V277H127.906ZM125.105 274.645C125.605 274.645 126.066 274.535 126.488 274.316C126.91 274.09 127.223 273.789 127.426 273.414V271.234H126.16C124.465 271.234 123.562 271.82 123.453 272.992L123.441 273.191C123.441 273.613 123.59 273.961 123.887 274.234C124.184 274.508 124.59 274.645 125.105 274.645Z" fill="black"/>
<path d="M136.543 264.32L136.648 265.785C137.555 264.652 138.77 264.086 140.293 264.086C141.637 264.086 142.637 264.48 143.293 265.27C143.949 266.059 144.285 267.238 144.301 268.809V277H140.914V268.891C140.914 268.172 140.758 267.652 140.445 267.332C140.133 267.004 139.613 266.84 138.887 266.84C137.934 266.84 137.219 267.246 136.742 268.059V277H133.355V264.32H136.543Z" fill="black"/>
<path d="M151.484 271.914L150.266 273.133V277H146.879V259H150.266V268.973L150.922 268.129L154.168 264.32H158.234L153.652 269.605L158.633 277H154.742L151.484 271.914Z" fill="black"/>
<path d="M163.273 277H159.875V259H163.273V277Z" fill="black"/>
<path d="M169.648 277H166.25V264.32H169.648V277ZM166.051 261.039C166.051 260.531 166.219 260.113 166.555 259.785C166.898 259.457 167.363 259.293 167.949 259.293C168.527 259.293 168.988 259.457 169.332 259.785C169.676 260.113 169.848 260.531 169.848 261.039C169.848 261.555 169.672 261.977 169.32 262.305C168.977 262.633 168.52 262.797 167.949 262.797C167.379 262.797 166.918 262.633 166.566 262.305C166.223 261.977 166.051 261.555 166.051 261.039Z" fill="black"/>
<path d="M175.566 264.32L175.672 265.785C176.578 264.652 177.793 264.086 179.316 264.086C180.66 264.086 181.66 264.48 182.316 265.27C182.973 266.059 183.309 267.238 183.324 268.809V277H179.938V268.891C179.938 268.172 179.781 267.652 179.469 267.332C179.156 267.004 178.637 266.84 177.91 266.84C176.957 266.84 176.242 267.246 175.766 268.059V277H172.379V264.32H175.566Z" fill="black"/>
<path d="M186.781 281.277L185.012 280.352L185.434 279.59C185.957 278.637 186.227 277.688 186.242 276.742V274.117H189.102L189.09 276.461C189.082 277.328 188.863 278.203 188.434 279.086C188.004 279.969 187.453 280.699 186.781 281.277Z" fill="black"/>
<path d="M211.355 271.316C211.223 273.152 210.543 274.598 209.316 275.652C208.098 276.707 206.488 277.234 204.488 277.234C202.301 277.234 200.578 276.5 199.32 275.031C198.07 273.555 197.445 271.531 197.445 268.961V267.918C197.445 266.277 197.734 264.832 198.312 263.582C198.891 262.332 199.715 261.375 200.785 260.711C201.863 260.039 203.113 259.703 204.535 259.703C206.504 259.703 208.09 260.23 209.293 261.285C210.496 262.34 211.191 263.82 211.379 265.727H207.863C207.777 264.625 207.469 263.828 206.938 263.336C206.414 262.836 205.613 262.586 204.535 262.586C203.363 262.586 202.484 263.008 201.898 263.852C201.32 264.688 201.023 265.988 201.008 267.754V269.043C201.008 270.887 201.285 272.234 201.84 273.086C202.402 273.938 203.285 274.363 204.488 274.363C205.574 274.363 206.383 274.117 206.914 273.625C207.453 273.125 207.762 272.355 207.84 271.316H211.355Z" fill="black"/>
<path d="M220.789 277C220.633 276.695 220.52 276.316 220.449 275.863C219.629 276.777 218.562 277.234 217.25 277.234C216.008 277.234 214.977 276.875 214.156 276.156C213.344 275.438 212.938 274.531 212.938 273.438C212.938 272.094 213.434 271.062 214.426 270.344C215.426 269.625 216.867 269.262 218.75 269.254H220.309V268.527C220.309 267.941 220.156 267.473 219.852 267.121C219.555 266.77 219.082 266.594 218.434 266.594C217.863 266.594 217.414 266.73 217.086 267.004C216.766 267.277 216.605 267.652 216.605 268.129H213.219C213.219 267.395 213.445 266.715 213.898 266.09C214.352 265.465 214.992 264.977 215.82 264.625C216.648 264.266 217.578 264.086 218.609 264.086C220.172 264.086 221.41 264.48 222.324 265.27C223.246 266.051 223.707 267.152 223.707 268.574V274.07C223.715 275.273 223.883 276.184 224.211 276.801V277H220.789ZM217.988 274.645C218.488 274.645 218.949 274.535 219.371 274.316C219.793 274.09 220.105 273.789 220.309 273.414V271.234H219.043C217.348 271.234 216.445 271.82 216.336 272.992L216.324 273.191C216.324 273.613 216.473 273.961 216.77 274.234C217.066 274.508 217.473 274.645 217.988 274.645Z" fill="black"/>
<path d="M19.4304 133.124L32.4727 132.609L21.8853 124.734L23.1818 120.302L39.4674 125.392L38.4769 128.778L34.0252 127.386L26.4397 124.647L37.2824 132.861L36.6045 135.177L23.1898 135.797L30.9616 137.858L35.4133 139.249L34.4261 142.623L18.1405 137.533L19.4304 133.124Z" fill="black"/>
<path d="M39.7274 112.611L33.6433 106.987L35.1699 103.69L46.1575 114.811L46.638 115.363C47.8041 116.785 48.0211 118.286 47.289 119.867C47.0821 120.314 46.8055 120.734 46.4591 121.129L44.1587 119.991L44.3859 119.529C44.6551 118.947 44.7678 118.472 44.7241 118.102C44.6836 117.724 44.4981 117.354 44.1674 116.99L43.4 116.166L30.1371 114.558L31.6686 111.251L39.7274 112.611Z" fill="black"/>
<path d="M62.2008 85.0791L60.1058 87.9023L54.3753 83.3598L50.2901 88.8652L56.0206 93.4076L53.9256 96.2309L40.5544 85.6318L42.6494 82.8086L48.0677 87.1035L52.1529 81.5982L46.7346 77.3032L48.8296 74.48L62.2008 85.0791Z" fill="black"/>
<path d="M61.6978 75.67C60.8337 74.756 60.234 73.7692 59.8985 72.7097C59.5631 71.6502 59.5291 70.6026 59.7964 69.5669C60.0693 68.5257 60.629 67.5776 61.4755 66.7227C62.6794 65.507 64.0202 64.8964 65.498 64.8911C66.9813 64.8802 68.3841 65.4833 69.7064 66.7002L70.3187 67.3137C71.655 68.7274 72.3464 70.2486 72.3927 71.8775C72.4336 73.5007 71.8109 74.9618 70.5246 76.2608C69.2383 77.5598 67.8078 78.1721 66.2332 78.0977C64.664 78.0178 63.1871 77.2454 61.8024 75.7807L61.6978 75.67ZM64.2498 73.4424C65.0763 74.3166 65.8691 74.8256 66.628 74.9691C67.3815 75.107 68.0552 74.8762 68.6489 74.2766C69.226 73.6938 69.4621 73.0115 69.3571 72.2298C69.2467 71.4424 68.7165 70.5462 67.7666 69.5414C66.9562 68.6841 66.1661 68.1836 65.3963 68.04C64.6265 67.8963 63.9475 68.1214 63.3593 68.7154C62.7766 69.3038 62.5486 69.9947 62.6752 70.7878C62.7965 71.5754 63.3214 72.4602 64.2498 73.4424Z" fill="black"/>
<path d="M74.1212 55.378L75.0076 56.4856C75.1102 55.0463 75.7794 53.8745 77.0152 52.9703C78.3329 52.0061 79.6019 51.8759 80.8221 52.5795C80.8124 50.9901 81.4728 49.7087 82.8031 48.7353C83.9128 47.9233 84.9661 47.6509 85.9631 47.9181C86.9556 48.1788 87.9066 48.973 88.8161 50.3008L93.3921 56.9815L90.6494 58.9883L86.08 52.3172C85.6739 51.7242 85.2646 51.3754 84.8522 51.2708C84.4354 51.1597 83.9401 51.3141 83.3663 51.7339C82.5467 52.3336 82.2529 53.1484 82.4851 54.1784L87.415 61.3549L84.6818 63.3548L80.119 56.6934C79.704 56.0875 79.2872 55.7346 78.8684 55.6346C78.4497 55.5345 77.9598 55.6898 77.3987 56.1004C76.6232 56.6678 76.2872 57.4071 76.3907 58.3183L81.4568 65.7145L78.7236 67.7144L71.5583 57.2534L74.1212 55.378Z" fill="black"/>
<path d="M104.253 51.2806C102.599 52.1294 101.004 52.3071 99.4672 51.8139C97.9377 51.3171 96.762 50.2131 95.9401 48.5018L95.798 48.206C95.2467 47.0581 94.9735 45.9211 94.9784 44.795C94.98 43.6619 95.2638 42.6473 95.8298 41.7512C96.3993 40.8446 97.1985 40.1273 98.2272 39.5995C99.7703 38.8078 101.22 38.6784 102.576 39.2114C103.94 39.7408 105.056 40.9105 105.925 42.7204L106.524 43.9669L99.34 47.6527C99.7959 48.3493 100.375 48.7981 101.078 48.9991C101.788 49.1966 102.519 49.1028 103.269 48.7176C104.43 48.122 105.133 47.2306 105.377 46.0432L107.664 46.9632C107.523 47.8429 107.155 48.6638 106.56 49.4258C105.961 50.1809 105.192 50.7991 104.253 51.2806ZM99.404 42.0767C98.8062 42.3834 98.4178 42.8373 98.2386 43.4383C98.0664 44.0358 98.1108 44.7416 98.3718 45.5556L102.563 43.4051L102.447 43.1622C102.108 42.4932 101.677 42.0648 101.153 41.8769C100.627 41.682 100.044 41.7486 99.404 42.0767Z" fill="black"/>
<path d="M119.135 40.81C119.001 40.418 118.702 40.1817 118.238 40.1012C117.778 40.0107 117.092 40.0314 116.18 40.1634C113.142 40.5942 111.312 39.8961 110.69 38.0692C110.328 37.0042 110.463 35.9578 111.095 34.9303C111.732 33.8927 112.76 33.1164 114.177 32.6015C115.689 32.0518 117.019 31.9717 118.166 32.3609C119.321 32.7475 120.093 33.514 120.483 34.6605L117.3 35.8171C117.144 35.3585 116.869 35.0347 116.475 34.8455C116.078 34.649 115.567 34.6641 114.943 34.8909C114.407 35.0857 114.034 35.3585 113.823 35.7093C113.612 36.0601 113.571 36.4241 113.699 36.8013C113.82 37.1563 114.084 37.3848 114.489 37.4866C114.9 37.5784 115.53 37.5615 116.378 37.4361C117.224 37.3032 117.953 37.238 118.564 37.2402C120.457 37.2505 121.663 38.0212 122.184 39.5522C122.557 40.6469 122.392 41.7039 121.691 42.7232C120.988 43.7351 119.898 44.5092 118.422 45.0455C117.423 45.4083 116.474 45.5537 115.575 45.4815C114.681 45.3992 113.908 45.1274 113.256 44.6662C112.602 44.1976 112.151 43.6009 111.905 42.8761L114.922 41.7795C115.146 42.3383 115.503 42.6987 115.996 42.8605C116.488 43.0224 117.061 42.9846 117.714 42.7471C118.324 42.5256 118.744 42.2442 118.974 41.9029C119.209 41.5515 119.263 41.1872 119.135 40.81Z" fill="black"/>
<path d="M129.228 25.0577L129.925 28.0959L132.031 27.5797L132.587 30.0012L130.481 30.5174L131.896 36.6851C132.001 37.142 132.164 37.4481 132.384 37.6032C132.604 37.7584 132.96 37.7756 133.453 37.6547C133.818 37.5654 134.134 37.4597 134.403 37.3375L134.977 39.8389C134.377 40.195 133.736 40.4568 133.053 40.6242C130.746 41.1897 129.302 40.3092 128.72 37.9827L127.192 31.3237L125.393 31.7646L124.838 29.3432L126.636 28.9023L125.939 25.8641L129.228 25.0577Z" fill="black"/>
<path d="M146.159 38.2437C144.315 38.4836 142.743 38.113 141.443 37.1319C140.151 36.1498 139.39 34.7165 139.161 32.832L139.121 32.5062C138.967 31.2421 139.074 30.082 139.441 29.0259C139.807 27.9619 140.403 27.1045 141.229 26.4535C142.061 25.7937 143.051 25.3892 144.198 25.2401C145.917 25.0163 147.335 25.3833 148.452 26.341C149.575 27.2978 150.259 28.7727 150.501 30.7658L150.669 32.1384L142.662 33.18C142.87 33.988 143.276 34.6048 143.879 35.0306C144.489 35.4554 145.213 35.6134 146.05 35.5045C147.343 35.3362 148.297 34.7355 148.911 33.7024L150.787 35.3373C150.37 36.1163 149.756 36.7634 148.945 37.2785C148.134 37.7859 147.205 38.1076 146.159 38.2437ZM144.517 27.9636C143.851 28.0503 143.336 28.3458 142.973 28.85C142.617 29.3532 142.432 30.0312 142.418 30.8838L147.089 30.2761L147.057 30.0086C146.951 29.2661 146.679 28.7184 146.243 28.3655C145.805 28.0049 145.23 27.8709 144.517 27.9636Z" fill="black"/>
<path d="M164.033 37C163.877 36.6953 163.764 36.3164 163.693 35.8633C162.873 36.7773 161.807 37.2344 160.494 37.2344C159.252 37.2344 158.221 36.875 157.401 36.1562C156.588 35.4375 156.182 34.5312 156.182 33.4375C156.182 32.0938 156.678 31.0625 157.67 30.3438C158.67 29.625 160.111 29.2617 161.994 29.2539H163.553V28.5273C163.553 27.9414 163.401 27.4727 163.096 27.1211C162.799 26.7695 162.326 26.5937 161.678 26.5937C161.108 26.5937 160.658 26.7305 160.33 27.0039C160.01 27.2773 159.85 27.6523 159.85 28.1289L156.463 28.1289C156.463 27.3945 156.69 26.7148 157.143 26.0898C157.596 25.4648 158.236 24.9766 159.065 24.625C159.893 24.2656 160.822 24.0859 161.854 24.0859C163.416 24.0859 164.654 24.4805 165.568 25.2695C166.49 26.0508 166.951 27.1523 166.951 28.5742V34.0703C166.959 35.2734 167.127 36.1836 167.455 36.8008V37L164.033 37ZM161.233 34.6445C161.733 34.6445 162.193 34.5352 162.615 34.3164C163.037 34.0898 163.35 33.7891 163.553 33.4141V31.2344H162.287C160.592 31.2344 159.69 31.8203 159.58 32.9922L159.568 33.1914C159.568 33.6133 159.717 33.9609 160.014 34.2344C160.311 34.5078 160.717 34.6445 161.233 34.6445Z" fill="black"/>
<path d="M173.378 30.9128C173.622 28.9513 174.254 27.4472 175.273 26.4004C176.301 25.3547 177.577 24.933 179.103 25.1355C180.326 25.2979 181.28 25.8895 181.964 26.9102L182.762 20.4908L186.131 20.938L183.911 38.8006L180.879 38.3982L180.883 37.0392C179.917 37.9749 178.775 38.3553 177.458 38.1806C175.979 37.9842 174.863 37.245 174.109 35.9628C173.364 34.6739 173.12 32.9906 173.378 30.9128ZM176.705 31.6026C176.559 32.7811 176.652 33.7115 176.984 34.394C177.317 35.0764 177.874 35.4696 178.656 35.5734C179.694 35.7111 180.48 35.3702 181.015 34.5507L181.632 29.585C181.323 28.6534 180.653 28.1192 179.623 27.9825C178.004 27.7677 177.032 28.9744 176.705 31.6026Z" fill="black"/>
<path d="M209.299 42.3781L203.506 40.273L201.272 43.2011L197.758 41.9244L209.223 27.94L212.285 29.0526L212.793 47.3873L209.279 46.1106L209.299 42.3781ZM205.315 37.9012L209.324 39.358L209.365 32.5791L205.315 37.9012Z" fill="black"/>
<path d="M223.071 49.8975C223.623 50.1899 224.148 50.2734 224.646 50.1482C225.144 50.0229 225.526 49.7084 225.793 49.2047L228.6 50.6904C228.212 51.4567 227.654 52.0541 226.928 52.4825C226.205 52.9039 225.399 53.1049 224.511 53.0855C223.633 53.0627 222.766 52.8247 221.91 52.3715C220.308 51.5236 219.3 50.3403 218.884 48.8215C218.472 47.2957 218.717 45.6228 219.619 43.8027L219.718 43.6032C220.585 41.8531 221.736 40.6996 223.171 40.1426C224.607 39.5857 226.125 39.7312 227.727 40.5791C229.129 41.321 230.05 42.3209 230.49 43.5788C230.94 44.8334 230.839 46.1364 230.187 47.4877L227.38 46.0021C227.658 45.4067 227.714 44.8357 227.549 44.2889C227.388 43.7352 227.024 43.3084 226.458 43.0088C225.76 42.6396 225.104 42.619 224.488 42.947C223.883 43.2716 223.294 44.0115 222.722 45.1665L222.566 45.4815C221.986 46.6506 221.746 47.5838 221.845 48.2812C221.944 48.9787 222.353 49.5174 223.071 49.8975Z" fill="black"/>
<path d="M237.14 61.6682C237.179 61.3237 237.294 60.9419 237.485 60.5227C236.312 60.816 235.188 60.586 234.113 59.8326C233.096 59.1195 232.449 58.2271 232.172 57.1553C231.901 56.088 232.065 55.0971 232.665 54.1827C233.403 53.0592 234.375 52.4819 235.582 52.4505C236.795 52.4236 238.174 52.9473 239.72 54.0216L240.997 54.9163L241.395 54.3088C241.717 53.819 241.849 53.3396 241.793 52.8708C241.742 52.4065 241.452 51.9882 240.921 51.616C240.454 51.2886 240.011 51.145 239.592 51.1853C239.18 51.23 238.843 51.4516 238.582 51.85L235.808 49.9059C236.211 49.2919 236.77 48.8537 237.484 48.5913C238.198 48.3289 238.99 48.2884 239.861 48.4699C240.736 48.6448 241.596 49.0282 242.441 49.6202C243.72 50.5172 244.518 51.5578 244.833 52.7422C245.159 53.9246 244.932 55.1101 244.152 56.2989L241.137 60.8938C240.483 61.9042 240.121 62.7615 240.051 63.4659L239.942 63.6324L237.14 61.6682ZM236.139 58.0911C236.548 58.3782 236.986 58.5513 237.451 58.6106C237.921 58.6634 238.342 58.5913 238.714 58.3944L239.91 56.572L238.874 55.8455C237.485 54.8724 236.425 54.8443 235.693 55.7612L235.574 55.921C235.342 56.2737 235.273 56.6496 235.366 57.0486C235.459 57.4477 235.717 57.7952 236.139 58.0911Z" fill="black"/>
<path d="M248.232 62.0726C249.516 60.5703 250.865 59.6714 252.279 59.3761C253.698 59.086 254.976 59.4599 256.112 60.4978C257.023 61.3302 257.477 62.3681 257.472 63.6115L261.675 58.6948L264.185 60.9866L252.488 74.6679L250.229 72.6052L250.984 71.4703C249.675 71.7029 248.531 71.3714 247.55 70.4757C246.448 69.4694 245.944 68.2154 246.036 66.7135C246.139 65.211 246.871 63.664 248.232 62.0726ZM250.573 64.5436C249.801 65.4462 249.362 66.2776 249.257 67.0378C249.151 67.798 249.39 68.4442 249.973 68.9763C250.746 69.6823 251.578 69.8447 252.469 69.4634L255.72 65.6601C255.982 64.7046 255.73 63.8765 254.963 63.1758C253.757 62.0746 252.294 62.5306 250.573 64.5436Z" fill="black"/>
<path d="M260.491 83.9487C259.289 82.5302 258.731 80.9912 258.819 79.3317C258.912 77.6782 259.662 76.2143 261.07 74.9402L261.313 74.7199C262.257 73.8653 263.259 73.2901 264.318 72.9944C265.384 72.6935 266.407 72.7049 267.387 73.0285C268.378 73.3528 269.248 73.956 269.995 74.8381C271.117 76.1612 271.593 77.5682 271.423 79.0592C271.259 80.5562 270.433 81.9784 268.944 83.326L267.919 84.254L262.699 78.0944C262.156 78.7336 261.876 79.4296 261.859 80.1824C261.847 80.9411 262.113 81.6424 262.659 82.286C263.502 83.2813 264.512 83.7419 265.687 83.6677L265.382 86.1877C264.521 86.2827 263.659 86.1357 262.798 85.7468C261.942 85.3527 261.173 84.7533 260.491 83.9487ZM267.955 76.6696C267.521 76.157 266.999 75.8919 266.39 75.8741C265.787 75.8624 265.134 76.0949 264.433 76.5718L267.479 80.1657L267.679 79.9848C268.225 79.4695 268.522 78.9265 268.57 78.3559C268.625 77.78 268.42 77.2179 267.955 76.6696Z" fill="black"/>
<path d="M279.745 87.9551L278.613 88.8211C280.004 88.9845 281.099 89.7192 281.899 91.0252C282.751 92.4178 282.797 93.7267 282.036 94.9519C283.58 95.0061 284.783 95.7361 285.643 97.142C286.361 98.3147 286.559 99.4078 286.236 100.421C285.92 101.43 285.088 102.375 283.741 103.256L276.964 107.688L275.19 104.789L281.957 100.364C282.559 99.9707 282.923 99.5643 283.051 99.1449C283.186 98.7211 283.067 98.2061 282.696 97.5997C282.166 96.7335 281.393 96.3989 280.378 96.596L273.097 101.371L271.329 98.4827L278.087 94.0638C278.701 93.6619 279.071 93.2478 279.194 92.8217C279.318 92.3956 279.198 91.886 278.835 91.293C278.334 90.4734 277.637 90.0985 276.746 90.1681L269.243 95.0745L267.475 92.186L278.087 85.2465L279.745 87.9551Z" fill="black"/>
<path d="M281.151 117.176L279.761 114.075L291.197 108.598L292.587 111.699L281.151 117.176ZM294.075 106.999C294.533 106.78 294.979 106.753 295.412 106.918C295.849 107.09 296.187 107.443 296.426 107.978C296.663 108.505 296.704 108.997 296.548 109.452C296.393 109.907 296.086 110.245 295.628 110.464C295.163 110.687 294.711 110.709 294.271 110.529C293.834 110.357 293.5 110.011 293.266 109.491C293.033 108.97 292.992 108.479 293.145 108.016C293.3 107.561 293.61 107.222 294.075 106.999Z" fill="black"/>
<path d="M285.975 130.099C286.212 129.848 286.533 129.613 286.937 129.393C285.815 128.924 285.046 128.067 284.629 126.822C284.234 125.645 284.244 124.546 284.66 123.526C285.078 122.513 285.802 121.822 286.832 121.453C288.097 121 289.225 121.122 290.217 121.821C291.212 122.526 292.012 123.77 292.618 125.553L293.114 127.03L293.798 126.785C294.35 126.588 294.743 126.285 294.977 125.878C295.213 125.478 295.228 124.97 295.022 124.355C294.841 123.815 294.569 123.435 294.207 123.216C293.848 123.005 293.444 122.979 292.996 123.14L291.918 119.929C292.61 119.681 293.322 119.667 294.054 119.886C294.787 120.104 295.45 120.547 296.044 121.214C296.646 121.878 297.111 122.698 297.439 123.676C297.936 125.157 297.958 126.465 297.506 127.597C297.064 128.735 296.173 129.543 294.835 130.023L289.661 131.877C288.531 132.29 287.727 132.756 287.251 133.276L287.063 133.343L285.975 130.099ZM287.302 126.649C287.461 127.123 287.71 127.523 288.05 127.849C288.398 128.173 288.78 128.368 289.198 128.434L291.25 127.698L290.847 126.498C290.308 124.891 289.47 124.233 288.332 124.525L288.14 124.581C287.743 124.723 287.463 124.981 287.3 125.355C287.137 125.729 287.138 126.16 287.302 126.649Z" fill="black"/>
</svg>
