<svg width="324" height="324" viewBox="0 0 324 324" fill="none" xmlns="http://www.w3.org/2000/svg">
<circle cx="162" cy="162" r="159" fill="white" stroke="black" stroke-width="6"/>
<path d="M210.881 102.213C209.37 102.213 208.142 103.444 208.142 104.959C208.142 106.474 209.37 107.705 210.881 107.705C212.393 107.705 213.621 106.474 213.621 104.959C213.621 103.444 212.393 102.213 210.881 102.213ZM210.881 105.461C210.606 105.461 210.381 105.235 210.381 104.959C210.381 104.683 210.606 104.457 210.881 104.457C211.157 104.457 211.382 104.683 211.382 104.959C211.382 105.235 211.158 105.461 210.881 105.461ZM219.95 102.356L219.842 102.296L219.893 102.193C221.07 99.8482 220.947 97.0615 219.631 94.8366C219.989 93.9304 220.182 92.9771 220.205 91.9929C220.31 87.41 216.678 83.5936 212.106 83.4881C212.093 83.4881 212.079 83.4881 212.066 83.4881C210.559 81.3736 208.131 80.063 205.51 80.003C200.944 79.8812 197.132 83.5384 197.026 88.1213C196.971 90.4388 197.902 92.6945 199.656 94.3786C200.081 94.7375 200.805 95.2637 201.534 95.7606L196.693 99.6387C188.794 105.967 182.543 114.251 178.614 123.593L171.925 139.501L159.427 146.889L136.815 131.596C119.565 119.944 96.0639 124.525 84.4275 141.812C72.8088 159.097 77.3789 182.656 94.6092 194.324L126.497 216.141V182.463L164.603 208.049L168.201 223.673H162.137V226.921H189.677V223.673H171.527L167.95 208.135L198.497 188.103C213.111 177.95 221.837 161.26 221.837 143.458C221.837 134.538 219.629 125.714 215.466 117.907C216.582 116.715 217.28 115.124 217.28 113.363V111.765H222.706L224.253 111.726L224.326 110.179C224.476 106.971 222.759 103.9 219.95 102.356ZM214.039 113.363C214.039 115.244 212.511 116.775 210.635 116.775C209.07 116.775 207.713 115.711 207.334 114.191L205.153 105.436C204.834 104.157 205.26 102.832 206.264 101.981L208.728 99.8872L215.832 103.796L214.104 109.685L214.039 113.363ZM205.435 83.2461C207.246 83.2883 208.908 84.3131 209.77 85.9208L210.285 86.8806L211.366 86.7669C211.583 86.7442 211.798 86.7328 212.03 86.7328C213.379 86.7653 214.635 87.3207 215.568 88.3C216.5 89.2792 216.995 90.5638 216.965 91.9182C216.945 92.7254 216.739 93.4984 216.351 94.2146L215.837 95.1597L216.506 96.0026C217.572 97.3457 217.766 99.2019 217 100.733L205.066 94.1675C204.529 93.8882 202.474 92.5126 201.822 91.9653C200.784 90.965 200.23 89.6268 200.264 88.196C200.329 85.4011 202.645 83.2331 205.435 83.2461ZM196.685 185.409L166.803 205.005L165.909 205.015L111.841 168.711C110.3 167.676 109.256 166.103 108.899 164.279C108.543 162.455 108.917 160.602 109.952 159.063C110.991 157.518 112.567 156.472 114.389 156.118C116.213 155.759 118.065 156.141 119.604 157.182L132.195 165.693L134.006 163.001L121.415 154.489C119.157 152.963 116.44 152.409 113.771 152.93C111.098 153.452 108.787 154.985 107.265 157.249C105.743 159.511 105.194 162.229 105.718 164.906C106.241 167.584 107.775 169.895 110.036 171.413L123.257 180.287V187.557L106.699 176.366C103.127 173.955 100.707 170.289 99.8839 166.046C99.0609 161.804 99.9341 157.497 102.343 153.919C104.75 150.334 108.408 147.904 112.638 147.081C116.863 146.257 121.163 147.133 124.735 149.551L140.951 160.513L142.762 157.82L126.547 146.858C122.258 143.953 117.098 142.902 112.021 143.891C106.941 144.882 102.549 147.798 99.6571 152.104C96.7654 156.399 95.7173 161.57 96.7055 166.664C97.6937 171.761 100.6 176.163 104.891 179.059L123.257 191.474V198.664L101.564 183.999C89.9987 176.168 86.932 160.363 94.7258 148.771C102.537 137.177 118.303 134.102 129.867 141.918L149.712 155.332L151.523 152.64L131.678 139.225C118.631 130.409 100.851 133.878 92.0399 146.956C83.2465 160.034 86.7052 177.859 99.7511 186.692L123.257 202.582V209.991L96.4284 191.633C80.6707 180.962 76.4911 159.425 87.1134 143.625C97.7504 127.823 119.233 123.633 135.004 134.287L159.309 150.727L174.127 141.968L174.13 141.973C177.315 140.008 180.994 139.229 184.77 139.713C189.112 140.273 193.105 142.704 195.728 146.386C198.398 150.132 199.412 154.811 198.511 159.218C197.792 162.733 195.731 165.674 191.913 168.69L160.521 190.253V167.221H157.281V196.418L193.831 171.306C198.38 167.718 200.803 164.191 201.686 159.871C202.768 154.58 201.558 148.977 198.367 144.497C195.223 140.083 190.418 137.165 185.185 136.491C182.131 136.094 179.138 136.411 176.335 137.374L181.6 124.85C185.318 116.005 191.237 108.165 198.717 102.172L204.487 97.5487L205.691 98.2112L204.175 99.5007C202.223 101.159 201.395 103.734 202.015 106.222L204.196 114.977C204.938 117.948 207.588 120.022 210.642 120.022C211.372 120.022 212.064 119.874 212.722 119.655C216.561 126.938 218.602 135.151 218.602 143.456C218.596 160.194 210.392 175.887 196.685 185.409ZM217.825 108.517L218.729 105.436C219.819 106.156 220.611 107.249 220.93 108.517H217.825Z" fill="black"/>
<path d="M106.656 264.008C106.544 265.368 106.488 266.584 106.488 267.656C106.488 268.408 106.512 269.016 106.56 269.48H106.008C105.688 267.672 105.208 266.4 104.568 265.664C103.928 264.928 103.032 264.56 101.88 264.56H101.088C100.592 264.56 100.232 264.6 100.008 264.68C99.784 264.76 99.632 264.92 99.552 265.16C99.472 265.384 99.432 265.752 99.432 266.264V272.312H100.272C101.12 272.312 101.76 272 102.192 271.376C102.64 270.752 102.952 270.008 103.128 269.144H103.68C103.632 269.816 103.608 270.568 103.608 271.4V272.552C103.608 273.368 103.656 274.504 103.752 275.96H103.2C102.864 273.848 101.888 272.792 100.272 272.792H99.432V278.312C99.432 278.952 99.496 279.424 99.624 279.728C99.768 280.016 100.008 280.208 100.344 280.304C100.696 280.4 101.248 280.456 102 280.472V281C100.032 280.952 98.568 280.928 97.608 280.928C96.808 280.928 95.8 280.944 94.584 280.976L93.816 281V280.52C94.344 280.488 94.728 280.424 94.968 280.328C95.224 280.232 95.392 280.048 95.472 279.776C95.568 279.504 95.616 279.064 95.616 278.456V266.552C95.616 265.944 95.568 265.504 95.472 265.232C95.392 264.96 95.224 264.776 94.968 264.68C94.728 264.584 94.344 264.52 93.816 264.488V264.008C95.544 264.056 98.152 264.08 101.64 264.08C103.992 264.08 105.664 264.056 106.656 264.008ZM116.035 268.256C116.755 268.256 117.299 268.472 117.667 268.904C118.035 269.336 118.219 269.856 118.219 270.464C118.219 271.056 118.043 271.544 117.691 271.928C117.355 272.296 116.907 272.48 116.347 272.48C115.803 272.48 115.371 272.344 115.051 272.072C114.731 271.784 114.571 271.408 114.571 270.944C114.571 270.176 114.923 269.552 115.627 269.072C115.563 269.056 115.467 269.048 115.339 269.048C115.179 269.048 115.051 269.064 114.955 269.096C114.347 269.192 113.827 269.56 113.395 270.2C112.979 270.84 112.771 271.496 112.771 272.168V278.528C112.771 279.264 112.947 279.776 113.299 280.064C113.667 280.352 114.243 280.496 115.027 280.496V281C114.803 281 114.619 280.992 114.475 280.976C112.843 280.928 111.755 280.904 111.211 280.904C110.779 280.904 109.795 280.928 108.259 280.976C108.131 280.992 107.971 281 107.779 281V280.496C108.355 280.496 108.755 280.376 108.979 280.136C109.203 279.88 109.315 279.424 109.315 278.768V271.208C109.315 270.472 109.203 269.936 108.979 269.6C108.755 269.264 108.355 269.096 107.779 269.096V268.592C108.291 268.64 108.787 268.664 109.267 268.664C110.691 268.664 111.859 268.552 112.771 268.328V270.56C113.075 269.872 113.515 269.32 114.091 268.904C114.667 268.472 115.315 268.256 116.035 268.256ZM122.15 281.168C121.126 281.168 120.358 280.904 119.846 280.376C119.35 279.848 119.102 279.152 119.102 278.288C119.102 277.568 119.286 276.976 119.654 276.512C120.038 276.032 120.494 275.664 121.022 275.408C121.566 275.152 122.254 274.88 123.086 274.592C123.966 274.288 124.606 274.016 125.006 273.776C125.422 273.52 125.63 273.176 125.63 272.744V270.872C125.63 270.2 125.47 269.68 125.15 269.312C124.846 268.928 124.366 268.736 123.71 268.736C122.942 268.736 122.358 268.928 121.958 269.312C122.406 269.472 122.75 269.712 122.99 270.032C123.246 270.352 123.374 270.728 123.374 271.16C123.374 271.704 123.19 272.136 122.822 272.456C122.454 272.776 122.006 272.936 121.478 272.936C120.918 272.936 120.486 272.76 120.182 272.408C119.878 272.056 119.726 271.616 119.726 271.088C119.726 270.64 119.83 270.264 120.038 269.96C120.262 269.64 120.598 269.344 121.046 269.072C121.478 268.816 122.006 268.616 122.63 268.472C123.27 268.328 123.966 268.256 124.718 268.256C125.502 268.256 126.182 268.336 126.758 268.496C127.334 268.656 127.814 268.928 128.198 269.312C128.55 269.664 128.782 270.096 128.894 270.608C129.022 271.12 129.086 271.816 129.086 272.696V279.224C129.086 279.608 129.118 279.88 129.182 280.04C129.262 280.2 129.406 280.28 129.614 280.28C129.854 280.28 130.142 280.144 130.478 279.872L130.718 280.28C129.998 280.872 129.118 281.168 128.078 281.168C127.198 281.168 126.582 280.992 126.23 280.64C125.878 280.288 125.694 279.816 125.678 279.224C124.878 280.52 123.702 281.168 122.15 281.168ZM123.998 279.632C124.622 279.632 125.166 279.304 125.63 278.648V273.728C125.438 274.048 125.03 274.4 124.406 274.784C123.782 275.184 123.31 275.584 122.99 275.984C122.67 276.384 122.51 276.96 122.51 277.712C122.51 278.368 122.646 278.856 122.918 279.176C123.19 279.48 123.55 279.632 123.998 279.632ZM140.332 268.256C141.548 268.256 142.428 268.568 142.972 269.192C143.244 269.496 143.436 269.888 143.548 270.368C143.66 270.848 143.716 271.496 143.716 272.312V278.768C143.716 279.424 143.828 279.88 144.052 280.136C144.292 280.376 144.692 280.496 145.252 280.496V281C143.652 280.936 142.596 280.904 142.084 280.904C141.604 280.904 140.564 280.936 138.964 281V280.496C139.444 280.496 139.78 280.376 139.972 280.136C140.164 279.88 140.26 279.424 140.26 278.768V271.304C140.26 270.648 140.148 270.152 139.924 269.816C139.716 269.48 139.332 269.312 138.772 269.312C138.116 269.312 137.556 269.584 137.092 270.128C136.628 270.656 136.396 271.312 136.396 272.096V278.768C136.396 279.424 136.492 279.88 136.684 280.136C136.876 280.376 137.212 280.496 137.692 280.496V281C136.22 280.936 135.228 280.904 134.716 280.904C134.236 280.904 133.132 280.936 131.404 281V280.496C131.98 280.496 132.38 280.376 132.604 280.136C132.828 279.88 132.94 279.424 132.94 278.768V271.208C132.94 270.472 132.828 269.936 132.604 269.6C132.38 269.264 131.98 269.096 131.404 269.096V268.592C131.916 268.64 132.412 268.664 132.892 268.664C134.316 268.664 135.484 268.552 136.396 268.328V270.488C137.116 269 138.428 268.256 140.332 268.256ZM158.338 279.248C158.594 279.632 158.802 279.92 158.962 280.112C159.122 280.288 159.33 280.416 159.586 280.496V281C158.306 280.936 157.466 280.904 157.066 280.904C156.538 280.904 155.506 280.936 153.97 281V280.496C154.194 280.496 154.37 280.456 154.498 280.376C154.626 280.296 154.69 280.184 154.69 280.04C154.69 279.96 154.65 279.84 154.57 279.68L152.194 275.384C152.034 275.112 151.866 274.928 151.69 274.832C151.514 274.736 151.29 274.672 151.018 274.64V278.768C151.018 279.424 151.122 279.88 151.33 280.136C151.538 280.376 151.914 280.496 152.458 280.496V281C150.858 280.936 149.818 280.904 149.338 280.904C148.794 280.904 147.69 280.936 146.026 281V280.496C146.586 280.496 146.978 280.376 147.202 280.136C147.442 279.88 147.562 279.424 147.562 278.768V265.088C147.562 264.352 147.442 263.816 147.202 263.48C146.978 263.144 146.586 262.976 146.026 262.976V262.472C146.538 262.52 147.034 262.544 147.514 262.544C148.906 262.544 150.074 262.432 151.018 262.208V274.184C151.338 274.152 151.61 274.088 151.834 273.992C152.074 273.896 152.282 273.752 152.458 273.56L154.282 271.784C154.81 271.256 155.074 270.768 155.074 270.32C155.074 269.952 154.906 269.664 154.57 269.456C154.234 269.232 153.786 269.104 153.226 269.072V268.592C154.106 268.64 155.042 268.664 156.034 268.664C157.362 268.664 158.298 268.64 158.842 268.592V269.072C157.898 269.28 156.898 269.896 155.842 270.92L154.306 272.504L158.338 279.248ZM164.495 278.768C164.495 279.424 164.607 279.88 164.831 280.136C165.055 280.376 165.455 280.496 166.031 280.496V281C164.367 280.936 163.295 280.904 162.815 280.904C162.271 280.904 161.167 280.936 159.503 281V280.496C160.063 280.496 160.455 280.376 160.679 280.136C160.919 279.88 161.039 279.424 161.039 278.768V265.088C161.039 264.352 160.919 263.816 160.679 263.48C160.455 263.144 160.063 262.976 159.503 262.976V262.472C160.015 262.52 160.511 262.544 160.991 262.544C162.383 262.544 163.551 262.432 164.495 262.208V278.768ZM170.173 262.4C170.845 262.4 171.373 262.568 171.757 262.904C172.157 263.224 172.357 263.672 172.357 264.248C172.357 264.824 172.157 265.28 171.757 265.616C171.373 265.936 170.845 266.096 170.173 266.096C169.501 266.096 168.965 265.936 168.565 265.616C168.181 265.28 167.989 264.824 167.989 264.248C167.989 263.672 168.181 263.224 168.565 262.904C168.965 262.568 169.501 262.4 170.173 262.4ZM172.045 278.768C172.045 279.424 172.157 279.88 172.381 280.136C172.621 280.376 173.021 280.496 173.581 280.496V281C171.981 280.936 170.917 280.904 170.389 280.904C169.893 280.904 168.781 280.936 167.053 281V280.496C167.629 280.496 168.029 280.376 168.253 280.136C168.477 279.88 168.589 279.424 168.589 278.768V271.208C168.589 270.472 168.477 269.936 168.253 269.6C168.029 269.264 167.629 269.096 167.053 269.096V268.592C167.565 268.64 168.061 268.664 168.541 268.664C169.965 268.664 171.133 268.552 172.045 268.328V278.768ZM183.551 268.256C184.767 268.256 185.647 268.568 186.191 269.192C186.463 269.496 186.655 269.888 186.767 270.368C186.879 270.848 186.935 271.496 186.935 272.312V278.768C186.935 279.424 187.047 279.88 187.271 280.136C187.511 280.376 187.911 280.496 188.471 280.496V281C186.871 280.936 185.815 280.904 185.303 280.904C184.823 280.904 183.783 280.936 182.183 281V280.496C182.663 280.496 182.999 280.376 183.191 280.136C183.383 279.88 183.479 279.424 183.479 278.768V271.304C183.479 270.648 183.367 270.152 183.143 269.816C182.935 269.48 182.551 269.312 181.991 269.312C181.335 269.312 180.775 269.584 180.311 270.128C179.847 270.656 179.615 271.312 179.615 272.096V278.768C179.615 279.424 179.711 279.88 179.903 280.136C180.095 280.376 180.431 280.496 180.911 280.496V281C179.439 280.936 178.447 280.904 177.935 280.904C177.455 280.904 176.351 280.936 174.623 281V280.496C175.199 280.496 175.599 280.376 175.823 280.136C176.047 279.88 176.159 279.424 176.159 278.768V271.208C176.159 270.472 176.047 269.936 175.823 269.6C175.599 269.264 175.199 269.096 174.623 269.096V268.592C175.135 268.64 175.631 268.664 176.111 268.664C177.535 268.664 178.703 268.552 179.615 268.328V270.488C180.335 269 181.647 268.256 183.551 268.256ZM191.933 277.64C192.717 277.64 193.285 277.92 193.637 278.48C193.797 278.72 193.925 279.016 194.021 279.368C194.117 279.72 194.165 280.088 194.165 280.472C194.165 281.304 193.949 282.056 193.517 282.728C193.101 283.4 192.477 283.928 191.645 284.312L191.429 283.88C191.893 283.688 192.293 283.392 192.629 282.992C192.981 282.592 193.189 282.184 193.253 281.768C193.301 281.576 193.325 281.392 193.325 281.216C193.325 281.056 193.301 280.904 193.253 280.76C192.901 281.144 192.437 281.336 191.861 281.336C191.301 281.336 190.845 281.176 190.493 280.856C190.141 280.52 189.965 280.064 189.965 279.488C189.965 278.944 190.149 278.504 190.517 278.168C190.885 277.816 191.357 277.64 191.933 277.64ZM210.434 263.672C211.394 263.672 212.21 263.808 212.882 264.08C213.554 264.352 214.21 264.736 214.85 265.232C215.026 265.376 215.178 265.448 215.306 265.448C215.626 265.448 215.834 264.968 215.93 264.008H216.482C216.418 265.096 216.386 267.032 216.386 269.816H215.834C215.69 268.632 215.498 267.728 215.258 267.104C215.018 266.48 214.61 265.936 214.034 265.472C213.634 265.088 213.17 264.8 212.642 264.608C212.114 264.4 211.562 264.296 210.986 264.296C209.37 264.296 208.17 265.088 207.386 266.672C206.602 268.24 206.21 270.2 206.21 272.552C206.21 274.888 206.618 276.84 207.434 278.408C208.25 279.976 209.466 280.76 211.082 280.76C211.626 280.76 212.162 280.664 212.69 280.472C213.234 280.264 213.69 279.968 214.058 279.584C214.65 279.136 215.058 278.576 215.282 277.904C215.522 277.232 215.706 276.248 215.834 274.952H216.386C216.386 277.848 216.418 279.864 216.482 281H215.93C215.882 280.488 215.81 280.128 215.714 279.92C215.634 279.696 215.514 279.584 215.354 279.584C215.226 279.584 215.058 279.648 214.85 279.776C214.13 280.288 213.442 280.68 212.786 280.952C212.13 281.208 211.338 281.336 210.41 281.336C208.714 281.336 207.226 280.992 205.946 280.304C204.682 279.616 203.698 278.624 202.994 277.328C202.29 276.016 201.938 274.456 201.938 272.648C201.938 270.888 202.298 269.328 203.018 267.968C203.738 266.608 204.738 265.552 206.018 264.8C207.314 264.048 208.786 263.672 210.434 263.672ZM221.572 281.168C220.548 281.168 219.78 280.904 219.268 280.376C218.772 279.848 218.524 279.152 218.524 278.288C218.524 277.568 218.708 276.976 219.076 276.512C219.46 276.032 219.916 275.664 220.444 275.408C220.988 275.152 221.676 274.88 222.508 274.592C223.388 274.288 224.028 274.016 224.428 273.776C224.844 273.52 225.052 273.176 225.052 272.744V270.872C225.052 270.2 224.892 269.68 224.572 269.312C224.268 268.928 223.788 268.736 223.132 268.736C222.364 268.736 221.78 268.928 221.38 269.312C221.828 269.472 222.172 269.712 222.412 270.032C222.668 270.352 222.796 270.728 222.796 271.16C222.796 271.704 222.612 272.136 222.244 272.456C221.876 272.776 221.428 272.936 220.9 272.936C220.34 272.936 219.908 272.76 219.604 272.408C219.3 272.056 219.148 271.616 219.148 271.088C219.148 270.64 219.252 270.264 219.46 269.96C219.684 269.64 220.02 269.344 220.468 269.072C220.9 268.816 221.428 268.616 222.052 268.472C222.692 268.328 223.388 268.256 224.14 268.256C224.924 268.256 225.604 268.336 226.18 268.496C226.756 268.656 227.236 268.928 227.62 269.312C227.972 269.664 228.204 270.096 228.316 270.608C228.444 271.12 228.508 271.816 228.508 272.696V279.224C228.508 279.608 228.54 279.88 228.604 280.04C228.684 280.2 228.828 280.28 229.036 280.28C229.276 280.28 229.564 280.144 229.9 279.872L230.14 280.28C229.42 280.872 228.54 281.168 227.5 281.168C226.62 281.168 226.004 280.992 225.652 280.64C225.3 280.288 225.116 279.816 225.1 279.224C224.3 280.52 223.124 281.168 221.572 281.168ZM223.42 279.632C224.044 279.632 224.588 279.304 225.052 278.648V273.728C224.86 274.048 224.452 274.4 223.828 274.784C223.204 275.184 222.732 275.584 222.412 275.984C222.092 276.384 221.932 276.96 221.932 277.712C221.932 278.368 222.068 278.856 222.34 279.176C222.612 279.48 222.972 279.632 223.42 279.632Z" fill="black"/>
<path d="M39.3243 86.3206C39.1107 86.7668 38.9866 87.1078 38.9519 87.3434C38.9173 87.5791 38.978 87.7995 39.134 88.0045C39.2971 88.1969 39.5997 88.4372 40.042 88.7255L48.7008 94.3705C49.1431 94.6588 49.4805 94.8358 49.7132 94.9014C49.9529 94.9543 50.1598 94.9084 50.3341 94.7638C50.5154 94.6065 50.7326 94.3262 50.9858 93.9231L51.3349 94.1507C50.9169 94.8252 50.3526 95.8089 49.6422 97.102C48.8968 98.4584 48.364 99.4713 48.0437 100.141L47.6946 99.913C47.922 99.4414 48.0566 99.0815 48.0982 98.8331C48.1468 98.5721 48.0931 98.3391 47.937 98.134C47.7809 97.929 47.4818 97.6823 47.0395 97.394L37.9093 91.4417L46.3894 103.194L46.2223 103.499L32.1587 101.304L40.5207 106.755C41.2074 107.203 41.7346 107.495 42.1022 107.631C42.4583 107.76 42.7816 107.747 43.0722 107.592C43.3511 107.429 43.6765 107.082 44.0481 106.549L44.3972 106.777C44.0907 107.249 43.6971 107.922 43.2164 108.797C42.8333 109.494 42.5478 110.057 42.3598 110.485L42.0107 110.257C42.1823 109.801 42.2506 109.432 42.2154 109.151C42.1872 108.857 42.0392 108.58 41.7714 108.319C41.5106 108.046 41.0835 107.716 40.4899 107.329L32.6341 102.208C32.1919 101.919 31.8509 101.749 31.6113 101.696C31.3786 101.63 31.1716 101.676 30.9903 101.833C30.816 101.978 30.6023 102.252 30.3491 102.655L30 102.427C30.2578 102.044 30.5783 101.504 30.9614 100.807C31.6022 99.6409 32.135 98.628 32.5598 97.7686L43.1721 99.4699L36.6453 90.4627L37.3871 89.1126C38.0976 87.8195 38.6269 86.813 38.9751 86.093L39.3243 86.3206Z" fill="black"/>
<path d="M47.1023 74.9712C47.4827 74.4325 47.7807 73.9739 47.9965 73.5956L48.3191 73.8658C48.143 74.5756 48.3698 75.6601 48.9993 77.1193L51.3098 82.3534L55.0676 85.5011C55.4762 85.8433 55.7925 86.0617 56.0167 86.1563C56.2491 86.2391 56.4595 86.2197 56.648 86.0981C56.8366 85.9764 57.0822 85.7255 57.3848 85.3453L57.7073 85.6155C57.2286 86.2209 56.5758 87.1092 55.749 88.2804C54.8643 89.5335 54.2397 90.4547 53.8751 91.0439L53.5525 90.7737C53.8038 90.3692 53.9593 90.0521 54.0188 89.8224C54.0866 89.581 54.0497 89.3544 53.9083 89.1428C53.7751 88.9194 53.5042 88.6366 53.0957 88.2943L50.37 86.0113L42.2187 84.579C41.3603 84.4377 40.8195 84.5252 40.5962 84.8414L40.2575 84.5577C40.6751 84.0875 41.1898 83.419 41.8016 82.5523C42.5706 81.4631 43.3209 80.3397 44.0526 79.1821L44.3913 79.4658C44.1019 79.8757 43.908 80.2351 43.8097 80.5441C43.7088 80.8324 43.7498 81.0531 43.9326 81.2062C44.0293 81.2872 44.1765 81.3453 44.3742 81.3804L50.9848 82.6683L49.4362 79.1906C48.9093 78.0224 48.4039 77.2356 47.92 76.8303C47.5545 76.5241 47.2001 76.4323 46.8569 76.5549C46.522 76.6657 46.1784 76.9464 45.8262 77.3968L45.5037 77.1267C46.0981 76.3573 46.631 75.6388 47.1023 74.9712Z" fill="black"/>
<path d="M66.487 54.1943C66.169 54.5593 65.9637 54.85 65.8709 55.0662C65.7781 55.2825 65.7809 55.5125 65.8792 55.7564C65.9874 55.9901 66.2177 56.3118 66.5702 56.7215L73.471 64.7414C73.8235 65.1511 74.1033 65.4222 74.3105 65.555C74.5275 65.6776 74.7381 65.6955 74.9422 65.6086C75.1463 65.5217 75.4259 65.3173 75.7809 64.9954L76.0592 65.3188C75.5464 65.7815 74.7804 66.5332 73.7611 67.5738C72.7616 68.5942 71.9986 69.4035 71.4723 70.0016L71.194 69.6782C71.502 69.3233 71.7024 69.0377 71.7952 68.8215C71.8979 68.5951 71.8952 68.3651 71.787 68.1313C71.6886 67.8874 71.4633 67.5607 71.1108 67.1511L67.7717 63.2704L63.8379 67.2865L67.1771 71.1671C67.5295 71.5767 67.8093 71.8479 68.0165 71.9807C68.2336 72.1033 68.4441 72.1212 68.6482 72.0343C68.8523 71.9474 69.1319 71.743 69.4869 71.4211L69.7652 71.7445C69.2029 72.2577 68.4419 73.0043 67.4819 73.9843C66.423 75.0654 65.6552 75.8797 65.1783 76.4273L64.9 76.1039C65.208 75.749 65.4084 75.4634 65.5012 75.2472C65.6039 75.0208 65.6012 74.7908 65.493 74.557C65.3947 74.3131 65.1693 73.9864 64.8168 73.5768L57.9159 65.5568C57.5635 65.1472 57.2787 64.881 57.0616 64.7584C56.8545 64.6257 56.6439 64.6078 56.4299 64.7048C56.2258 64.7916 55.9512 64.991 55.6061 65.3028L55.3278 64.9795C55.8604 64.4965 56.6561 63.7145 57.715 62.6335C58.6749 61.6535 59.4081 60.8745 59.9147 60.2966L60.193 60.62C59.8751 60.985 59.6697 61.2757 59.5769 61.4919C59.4841 61.7081 59.4869 61.9382 59.5852 62.1821C59.6934 62.4158 59.9237 62.7375 60.2762 63.1472L63.5597 66.9631L67.4934 62.947L64.2099 59.1311C63.8575 58.7215 63.5727 58.4553 63.3556 58.3327C63.1485 58.2 62.9379 58.1821 62.7239 58.2791C62.5198 58.3659 62.2452 58.5653 61.9001 58.8772L61.6218 58.5538C62.2038 58.0203 62.9946 57.2434 63.9941 56.223C65.0134 55.1823 65.7516 54.3983 66.2087 53.8709L66.487 54.1943Z" fill="black"/>
<path d="M74.6163 46.7192C75.7764 45.7941 76.961 45.2431 78.1701 45.0662C79.3901 44.8806 80.5694 45.0846 81.708 45.678C82.8385 46.2596 83.8565 47.2239 84.7619 48.571C85.6432 49.8823 86.1782 51.2409 86.3667 52.6469C86.5553 54.0529 86.3947 55.3895 85.8848 56.6567C85.3858 57.9152 84.5728 58.9939 83.4455 59.8929C82.2855 60.818 81.0954 61.3733 79.8754 61.5589C78.6663 61.7358 77.4965 61.5335 76.3659 60.9519C75.2274 60.3584 74.2054 59.3881 73.3 58.0411C72.4187 56.7298 71.8837 55.3711 71.6951 53.9651C71.5066 52.5591 71.6617 51.2269 72.1607 49.9684C72.6706 48.7012 73.4891 47.6181 74.6163 46.7192ZM74.767 47.0934C74.1651 47.5734 73.8146 48.2649 73.7155 49.1679C73.6084 50.059 73.7495 51.0817 74.1388 52.2361C74.539 53.3818 75.1517 54.5686 75.977 55.7964C76.8103 57.0362 77.6802 58.0178 78.5868 58.7414C79.5043 59.4562 80.3706 59.8823 81.1857 60.0196C82.0118 60.1482 82.7148 59.9812 83.2949 59.5186C83.8968 59.0386 84.2513 58.3531 84.3584 57.462C84.4575 56.559 84.3069 55.5347 83.9067 54.389C83.5174 53.2346 82.9102 52.0435 82.0849 50.8157C81.2516 49.5759 80.3762 48.5986 79.4587 47.8838C78.5521 47.1602 77.6858 46.7341 76.8597 46.6056C76.0446 46.4682 75.347 46.6309 74.767 47.0934Z" fill="black"/>
<path d="M99.2411 31.4505C98.8503 31.7188 98.5854 31.9452 98.4465 32.1298C98.3076 32.3144 98.2581 32.5381 98.2981 32.8008C98.35 33.0564 98.5003 33.4301 98.7491 33.9218L103.619 43.549C103.868 44.0407 104.078 44.3787 104.248 44.563C104.431 44.7402 104.631 44.8141 104.848 44.7848C105.078 44.7484 105.395 44.6255 105.8 44.416L105.996 44.8042C105.323 45.1576 104.381 45.6979 103.169 46.4252C101.898 47.1881 100.97 47.7708 100.383 48.1732L100.187 47.785C100.602 47.5025 100.884 47.2653 101.035 47.0736C101.198 46.8748 101.259 46.644 101.219 46.3812C101.179 46.1184 101.035 45.7412 100.786 45.2495L95.6507 35.0983L97.5422 49.9039L97.2571 50.075L86.1226 40.4629L90.8258 49.7601C91.2121 50.5236 91.5324 51.0651 91.787 51.3846C92.035 51.6912 92.3204 51.8573 92.643 51.8829C92.9592 51.8956 93.4009 51.7738 93.9682 51.5177L94.1646 51.9059C93.6816 52.1451 93.0303 52.5107 92.2107 53.0027C91.5573 53.3949 91.0504 53.7244 90.6899 53.9914L90.4935 53.6032C90.8528 53.3032 91.0822 53.0221 91.1819 52.7599C91.2934 52.4905 91.2938 52.1698 91.183 51.7977C91.0841 51.4185 90.8677 50.899 90.5338 50.239L86.1154 41.5047C85.8666 41.013 85.651 40.6786 85.4684 40.5014C85.2978 40.317 85.0977 40.2431 84.8684 40.2795C84.6509 40.3089 84.3396 40.4282 83.9345 40.6376L83.7382 40.2495C84.1379 40.0601 84.6645 39.7694 85.3179 39.3772C86.4108 38.7212 87.3394 38.1385 88.1038 37.6291L96.485 44.9211L95.0114 33.559L96.2766 32.7996C97.4883 32.0724 98.411 31.4932 99.0447 31.0623L99.2411 31.4505Z" fill="black"/>
<path d="M116.237 36.9566C116.706 38.2163 117.137 39.2375 117.53 40.0203C116.66 40.3565 115.213 40.9712 113.189 41.8645C110.449 43.0741 108.408 43.999 107.065 44.6393L106.913 44.2285C107.317 44.018 107.598 43.8301 107.756 43.6647C107.927 43.4938 108 43.2781 107.977 43.0175C107.966 42.7515 107.863 42.3583 107.67 41.838L103.88 31.6506C103.686 31.1303 103.509 30.7704 103.347 30.5709C103.197 30.3658 103.007 30.2666 102.775 30.2733C102.556 30.2743 102.234 30.3527 101.809 30.5084L101.656 30.0976C103.029 29.5395 105.085 28.6556 107.826 27.4461C109.674 26.6305 110.98 26.0301 111.744 25.6451C112.079 26.8204 112.411 27.8531 112.743 28.7431C112.967 29.3456 113.159 29.8028 113.319 30.1148L112.885 30.3062C112.151 28.9243 111.43 28.0472 110.721 27.6748C110.011 27.3024 109.211 27.3131 108.318 27.7071L107.545 28.0483C107.155 28.2203 106.885 28.3794 106.735 28.5255C106.584 28.6716 106.516 28.8613 106.529 29.0944C106.538 29.3139 106.623 29.6427 106.786 30.0808L108.681 35.1745L109.285 34.9082C109.951 34.6141 110.354 34.1252 110.495 33.4414C110.648 32.752 110.657 32.0071 110.52 31.2066L110.954 31.0152C111.13 31.607 111.35 32.2588 111.615 32.9709L111.982 33.9567C112.242 34.6551 112.641 35.6106 113.18 36.8234L112.746 37.0148C111.81 35.3239 110.707 34.7586 109.437 35.319L108.834 35.5853L110.759 40.7611C110.922 41.1993 111.074 41.5072 111.213 41.6849C111.347 41.8488 111.515 41.9262 111.716 41.917C111.918 41.9078 112.213 41.8172 112.603 41.6452L113.527 41.2373C114.419 40.8434 115.014 40.1985 115.31 39.3027C115.613 38.3876 115.583 37.086 115.218 35.3978L115.652 35.2063C115.782 35.6748 115.977 36.2583 116.237 36.9566Z" fill="black"/>
<path d="M120.699 22.3228C121.375 22.1063 121.935 22.0044 122.376 22.017C122.818 22.0297 123.283 22.1041 123.772 22.2402C123.938 22.2794 124.081 22.3107 124.2 22.3341C124.333 22.3533 124.438 22.3505 124.516 22.3255C124.633 22.288 124.705 22.188 124.732 22.0254C124.755 21.8487 124.742 21.591 124.693 21.2525L125.142 21.1089C125.333 22.0794 125.737 23.7058 126.352 25.988L125.903 26.1317C125.645 25.3828 125.285 24.7049 124.825 24.0977C124.377 23.4864 123.849 23.0473 123.239 22.7802C122.639 22.4949 122.014 22.4563 121.363 22.6645C120.726 22.8685 120.259 23.2335 119.962 23.7595C119.675 24.2672 119.621 24.8541 119.801 25.5204C119.935 26.0165 120.149 26.4176 120.444 26.7237C120.738 27.0298 121.103 27.2826 121.539 27.482C121.97 27.6672 122.621 27.9055 123.491 28.1968L124.242 28.4647C125.159 28.7719 125.894 29.0602 126.448 29.3297C127.001 29.5992 127.489 29.9667 127.911 30.4321C128.343 30.8791 128.656 31.4641 128.851 32.187C129.096 33.0942 129.087 33.9284 128.826 34.6895C128.561 35.4365 128.1 36.0845 127.442 36.6337C126.797 37.1788 126.026 37.595 125.128 37.8823C124.399 38.1155 123.775 38.2382 123.255 38.2505C122.735 38.2628 122.241 38.2131 121.773 38.1012C121.433 37.9943 121.185 37.9659 121.029 38.0158C120.912 38.0533 120.842 38.1604 120.819 38.3372C120.792 38.4997 120.803 38.7503 120.852 39.0888L120.403 39.2325C120.214 38.3228 119.724 36.4008 118.933 33.4665L119.382 33.3229C119.901 34.8814 120.574 36.0672 121.401 36.8804C122.225 37.6794 123.216 37.8937 124.374 37.5231C125.076 37.2982 125.6 36.9074 125.945 36.3506C126.289 35.7937 126.358 35.1326 126.152 34.3671C125.938 33.5733 125.52 32.9679 124.899 32.5508C124.277 32.1337 123.364 31.7331 122.157 31.3492C121.228 31.0462 120.473 30.7641 119.894 30.5029C119.314 30.2417 118.8 29.8826 118.352 29.4255C117.9 28.9543 117.574 28.3501 117.375 27.613C117.146 26.7625 117.148 25.9842 117.382 25.2781C117.625 24.5537 118.04 23.9435 118.627 23.4476C119.214 22.9518 119.905 22.5768 120.699 22.3228Z" fill="black"/>
<path d="M142.109 17.4832C142.251 18.882 142.415 20.126 142.602 21.2154C142.718 21.898 142.833 22.4459 142.945 22.859L142.484 22.9523C141.859 21.2306 141.204 20.0635 140.52 19.4508C139.85 18.8354 139.034 18.625 138.074 18.8196L137.614 18.9129L139.74 31.3533C139.844 31.9633 139.973 32.3955 140.127 32.6499C140.294 32.9015 140.526 33.0498 140.824 33.0947C141.132 33.1224 141.601 33.0799 142.23 32.9674L142.304 33.4031C140.617 33.7002 139.346 33.9352 138.493 34.1082C137.653 34.2786 136.436 34.5477 134.844 34.9157L134.769 34.48C135.393 34.3384 135.838 34.1956 136.103 34.0517C136.379 33.8905 136.547 33.6612 136.606 33.3636C136.679 33.0633 136.664 32.6081 136.559 31.9981L134.434 19.5577L133.994 19.6469C133.354 19.7767 132.833 20.04 132.432 20.4369C132.044 20.8312 131.751 21.4166 131.552 22.1932C131.351 22.9552 131.242 23.9693 131.224 25.2353L130.763 25.3286C130.732 24.8993 130.657 24.3433 130.541 23.6606C130.354 22.5713 130.097 21.3461 129.768 19.9852C130.989 19.7828 133.052 19.3869 135.959 18.7975C138.866 18.2082 140.916 17.7701 142.109 17.4832Z" fill="black"/>
<path d="M157.721 28.4126C157.82 29.7675 157.95 30.8826 158.11 31.758C157.187 31.794 155.637 31.9069 153.461 32.0968C150.513 32.3538 148.311 32.5681 146.854 32.7397L146.822 32.2979C147.266 32.2295 147.586 32.1423 147.782 32.0362C147.992 31.929 148.121 31.7473 148.171 31.491C148.233 31.2336 148.244 30.8251 148.203 30.2654L147.397 19.3085C147.356 18.7489 147.286 18.3475 147.186 18.1042C147.1 17.8597 146.946 17.7027 146.723 17.6333C146.514 17.5626 146.185 17.532 145.737 17.5414L145.704 17.0996C147.168 17.0164 149.373 16.8463 152.321 16.5892C154.308 16.4159 155.719 16.2706 156.554 16.1533C156.549 17.3839 156.582 18.4778 156.653 19.4351C156.7 20.083 156.757 20.582 156.824 20.9319L156.357 20.9726C156.039 19.4145 155.593 18.3418 155.019 17.7545C154.445 17.1673 153.678 16.9155 152.718 16.9992L151.887 17.0717C151.467 17.1083 151.166 17.1716 150.982 17.2618C150.798 17.3519 150.681 17.5104 150.629 17.7372C150.577 17.9493 150.568 18.291 150.603 18.7622L151.005 24.2407L151.654 24.1841C152.371 24.1216 152.891 23.7872 153.213 23.181C153.55 22.5736 153.763 21.8658 153.853 21.0576L154.32 21.0169C154.325 21.639 154.355 22.3329 154.411 23.0987L154.489 24.1591C154.545 24.9102 154.662 25.9522 154.842 27.2853L154.375 27.326C153.948 25.4068 153.052 24.5068 151.687 24.6259L151.038 24.6825L151.447 30.2493C151.482 30.7205 151.541 31.0637 151.625 31.2787C151.707 31.479 151.846 31.6077 152.041 31.6648C152.236 31.7219 152.542 31.7322 152.962 31.6956L153.955 31.609C154.915 31.5252 155.66 31.1046 156.189 30.347C156.731 29.5735 157.061 28.3219 157.179 26.5924L157.645 26.5517C157.64 27.0412 157.666 27.6615 157.721 28.4126Z" fill="black"/>
<path d="M172.391 30.2082C172.557 30.7003 172.752 31.0602 172.978 31.2879C173.203 31.5156 173.425 31.6398 173.641 31.6603L173.631 32.1034C172.819 32.0374 171.789 31.9878 170.541 31.9545C169.158 31.9177 168.127 31.9124 167.448 31.9386L167.458 31.4955C167.974 31.4797 168.342 31.423 168.561 31.3254C168.78 31.213 168.893 31.0165 168.899 30.7359C168.905 30.47 168.832 30.1134 168.679 29.6659L167.538 26L163.104 25.8819L162.542 27.3965C162.139 28.4498 161.931 29.2644 161.918 29.8405C161.906 30.3869 162.047 30.7749 162.34 31.0044C162.648 31.2195 163.099 31.3498 163.695 31.3952L163.686 31.8383C162.765 31.7694 161.924 31.7249 161.165 31.7046C160.541 31.688 160.026 31.6964 159.618 31.7299L159.628 31.2868C160.295 31.1716 160.895 30.4117 161.428 29.0072L166.35 16.1702C166.499 16.189 166.736 16.2027 167.062 16.2113C167.387 16.22 167.618 16.2188 167.754 16.2076L172.391 30.2082ZM167.406 25.5531L165.524 19.5177L163.277 25.4431L167.406 25.5531Z" fill="black"/>
<path d="M183.207 17.7232C185.827 18.1126 187.708 19.0556 188.848 20.5521C189.99 22.0341 190.407 24.012 190.097 26.4859C189.897 28.0815 189.399 29.4315 188.604 30.536C187.824 31.6279 186.788 32.4133 185.496 32.8923C184.217 33.3733 182.745 33.49 181.078 33.2423L179.831 33.0346C179.055 32.8895 178.493 32.791 178.143 32.7391C176.759 32.5334 175.722 32.4015 175.031 32.3436L175.086 31.9044C175.533 31.9411 175.863 31.9304 176.075 31.8726C176.301 31.8167 176.463 31.6693 176.562 31.4305C176.674 31.1936 176.764 30.797 176.834 30.2407L178.198 19.3497C178.268 18.7934 178.278 18.3849 178.228 18.124C178.192 17.8652 178.072 17.6759 177.868 17.5561C177.678 17.4383 177.363 17.3318 176.923 17.2366L176.978 16.7975C177.537 16.9253 178.347 17.0681 179.409 17.2258L180.034 17.3187L180.843 17.4166C181.948 17.5511 182.736 17.6533 183.207 17.7232ZM183.137 18.1154C182.72 18.0535 182.398 18.0578 182.17 18.1283C181.956 18.2008 181.792 18.3628 181.678 18.6143C181.565 18.8659 181.475 19.2551 181.409 19.7821L180.034 30.761C179.968 31.288 179.959 31.6892 180.006 31.9647C180.054 32.2402 180.172 32.4441 180.361 32.5765C180.563 32.711 180.879 32.8101 181.309 32.874C182.935 33.1157 184.168 32.6726 185.007 31.5448C185.849 30.4024 186.426 28.5796 186.74 26.0764C187.053 23.5732 186.927 21.6832 186.361 20.4062C185.811 19.1167 184.736 18.3531 183.137 18.1154Z" fill="black"/>
<path d="M209.404 38.8002C209.44 39.3228 209.538 39.727 209.698 40.013C209.858 40.299 210.04 40.484 210.243 40.568L210.123 40.9914C209.358 40.6869 208.379 40.3337 207.187 39.9317C205.865 39.486 204.874 39.1751 204.215 38.9989L204.335 38.5755C204.835 38.7134 205.203 38.7678 205.439 38.7389C205.678 38.696 205.836 38.5404 205.912 38.2722C205.984 38.0182 206.003 37.6533 205.968 37.1774L205.788 33.3123L201.552 31.8835L200.631 33.1738C199.979 34.0676 199.575 34.7897 199.419 35.3401C199.271 35.8623 199.309 36.2773 199.534 36.5852C199.775 36.8833 200.177 37.1425 200.739 37.363L200.619 37.7864C199.75 37.447 198.953 37.1549 198.227 36.9102C197.631 36.7092 197.133 36.5643 196.732 36.4756L196.852 36.0522C197.523 36.1393 198.291 35.5862 199.156 34.393L207.107 23.503C207.245 23.5652 207.47 23.6487 207.781 23.7536C208.092 23.8585 208.314 23.9257 208.448 23.9553L209.404 38.8002ZM205.773 32.843L205.473 26.4783L201.827 31.5125L205.773 32.843Z" fill="black"/>
<path d="M224.025 30.1713C224.772 30.522 225.362 30.9354 225.794 31.4116C226.226 31.8878 226.608 32.4531 226.94 33.1075C227.028 33.294 227.122 33.4105 227.222 33.4573C227.471 33.5742 227.794 33.2432 228.191 32.4641L228.621 32.6658C228.206 33.5651 227.532 35.1952 226.598 37.5561L226.168 37.3544C226.453 36.2977 226.607 35.461 226.629 34.8441C226.652 34.2273 226.517 33.6169 226.224 33.013C226.041 32.5412 225.776 32.1274 225.43 31.7717C225.088 31.4024 224.694 31.1125 224.245 30.9021C222.987 30.3117 221.787 30.545 220.645 31.6018C219.509 32.6451 218.547 34.164 217.758 36.1586C216.974 38.1396 216.637 39.944 216.747 41.5719C216.856 43.1997 217.54 44.3088 218.798 44.8992C219.221 45.098 219.671 45.2124 220.146 45.2425C220.64 45.2648 221.094 45.1804 221.509 44.9892C222.12 44.8255 222.626 44.4997 223.026 44.0117C223.438 43.5295 223.911 42.7622 224.445 41.7099L224.875 41.9116C223.904 44.3675 223.253 46.0888 222.921 47.0756L222.492 46.8739C222.626 46.4222 222.691 46.0906 222.686 45.8791C222.699 45.6599 222.643 45.5211 222.518 45.4627C222.419 45.4159 222.266 45.4088 222.061 45.4414C221.329 45.6125 220.662 45.6936 220.06 45.6846C219.463 45.662 218.804 45.4812 218.081 45.1422C216.761 44.5226 215.718 43.6872 214.952 42.6361C214.199 41.5909 213.766 40.3902 213.652 39.0339C213.544 37.6641 213.793 36.2125 214.4 34.6793C214.99 33.1868 215.793 31.9953 216.81 31.1051C217.827 30.2148 218.96 29.6846 220.208 29.5145C221.47 29.3503 222.742 29.5692 224.025 30.1713Z" fill="black"/>
<path d="M235.686 52.7918C235.62 53.3108 235.638 53.7285 235.739 54.0449C235.839 54.3613 235.981 54.5839 236.164 54.7129L235.964 55.099C235.275 54.6251 234.387 54.0544 233.3 53.3869C232.095 52.6469 231.187 52.1148 230.576 51.7907L230.776 51.4046C231.238 51.6545 231.587 51.7925 231.823 51.8185C232.065 51.8316 232.249 51.7159 232.376 51.4714C232.496 51.2397 232.585 50.8873 232.643 50.4141L233.218 46.5951L229.354 44.2227L228.204 45.2718C227.394 45.9953 226.859 46.608 226.599 47.11C226.353 47.5861 226.309 48.0006 226.469 48.3532C226.648 48.7003 226.99 49.0463 227.497 49.3913L227.297 49.7774C226.514 49.2454 225.791 48.7763 225.129 48.37C224.586 48.0363 224.127 47.7799 223.752 47.6008L223.952 47.2147C224.591 47.4544 225.449 47.0907 226.526 46.1236L236.411 37.3114C236.534 37.4041 236.738 37.5375 237.021 37.7116C237.305 37.8857 237.509 38.0026 237.634 38.0623L235.686 52.7918ZM233.294 46.1329L234.237 39.8431L229.696 43.9237L233.294 46.1329Z" fill="black"/>
<path d="M250.621 47.3104C252.766 48.9953 254.019 50.7901 254.38 52.6948C254.749 54.5876 254.264 56.5466 252.923 58.5718C252.058 59.8781 251.037 60.8152 249.858 61.3831C248.699 61.9477 247.445 62.1108 246.098 61.8724C244.762 61.6426 243.412 60.992 242.048 59.9206L241.036 59.099C240.414 58.5739 239.96 58.199 239.674 57.9744C238.541 57.0844 237.682 56.437 237.097 56.0323L237.335 55.6728C237.714 55.934 238.009 56.0934 238.222 56.1511C238.446 56.2174 238.652 56.1704 238.842 56.0098C239.043 55.858 239.294 55.5543 239.596 55.0989L245.498 46.1829C245.799 45.7275 245.984 45.3721 246.053 45.1165C246.133 44.8696 246.109 44.641 245.98 44.4309C245.863 44.2293 245.63 43.974 245.283 43.6649L245.521 43.3054C245.959 43.7043 246.613 44.245 247.482 44.9276L247.994 45.3294L248.666 45.8299C249.584 46.5144 250.235 47.0079 250.621 47.3104ZM250.39 47.621C250.049 47.3531 249.762 47.192 249.531 47.1376C249.31 47.0919 249.096 47.151 248.887 47.3148C248.678 47.4787 248.431 47.7763 248.145 48.2078L242.196 57.1957C241.91 57.6271 241.729 57.9766 241.652 58.2441C241.576 58.5117 241.592 58.7522 241.701 58.9657C241.822 59.1879 242.058 59.4372 242.41 59.7137C243.741 60.7592 245.021 60.999 246.248 60.433C247.484 59.8551 248.78 58.5415 250.136 56.4922C251.492 54.443 252.196 52.71 252.248 51.2933C252.318 49.8733 251.699 48.6492 250.39 47.621Z" fill="black"/>
<path d="M260.114 71.9862C259.279 72.9958 258.624 73.8643 258.149 74.592C257.491 73.8864 256.351 72.7372 254.73 71.1445C252.533 68.9879 250.878 67.3919 249.763 66.3564L250.035 66.0272C250.386 66.3317 250.664 66.5252 250.869 66.6078C251.085 66.7002 251.295 66.6779 251.5 66.5408C251.715 66.4136 251.995 66.1416 252.34 65.7246L259.097 57.5605C259.442 57.1435 259.662 56.8121 259.755 56.5662C259.859 56.3302 259.858 56.1001 259.751 55.876C259.655 55.6618 259.449 55.3804 259.135 55.032L259.408 54.7029C260.468 55.8042 262.097 57.4331 264.293 59.5897C265.774 61.0439 266.84 62.0612 267.492 62.6417C266.668 63.4832 265.96 64.2606 265.37 64.9738C264.97 65.4567 264.677 65.8446 264.489 66.1376L264.141 65.7963C264.962 64.4738 265.371 63.3837 265.369 62.5261C265.366 61.6684 265.008 60.8884 264.292 60.186L263.673 59.5776C263.361 59.2709 263.111 59.0758 262.925 58.9922C262.738 58.9085 262.552 58.9243 262.365 59.0394C262.188 59.1436 261.954 59.3712 261.663 59.7224L258.284 63.8044L258.768 64.2793C259.302 64.8036 259.882 64.9853 260.508 64.8244C261.144 64.6735 261.763 64.3561 262.364 63.8724L262.712 64.2137C262.3 64.6449 261.858 65.1458 261.386 65.7164L260.732 66.5065C260.269 67.0661 259.654 67.8749 258.888 68.9328L258.541 68.5915C259.528 66.9353 259.513 65.6076 258.496 64.6085L258.012 64.1336L254.579 68.2815C254.288 68.6326 254.1 68.9152 254.014 69.1293C253.938 69.3324 253.947 69.5306 254.043 69.724C254.138 69.9173 254.342 70.1673 254.654 70.474L255.395 71.2011C256.11 71.9035 256.902 72.204 257.771 72.1027C258.66 72.0003 259.721 71.4017 260.956 70.3068L261.304 70.6481C260.974 70.9806 260.577 71.4266 260.114 71.9862Z" fill="black"/>
<path d="M281.927 80.7384C281.603 80.3797 281.343 80.1461 281.148 80.0376C280.953 79.9291 280.742 79.9242 280.515 80.0228C280.296 80.1325 279.993 80.3721 279.605 80.7417L272.009 87.9772C271.621 88.3467 271.362 88.642 271.233 88.8629C271.113 89.095 271.09 89.3236 271.162 89.5488C271.244 89.7851 271.422 90.0965 271.696 90.4829L271.39 90.7747C270.929 90.1338 270.244 89.2462 269.333 88.1117C268.378 86.9217 267.657 86.0576 267.171 85.5196L267.477 85.2278C267.819 85.6088 268.092 85.859 268.296 85.9786C268.509 86.1094 268.729 86.1254 268.957 86.0268C269.184 85.9282 269.491 85.6942 269.879 85.3246L277.889 77.6952L265.013 82.8649L264.799 82.598L271.046 68.6991L263.71 75.6866C263.107 76.2604 262.69 76.7168 262.458 77.0559C262.236 77.3852 262.147 77.7243 262.193 78.0731C262.249 78.4123 262.453 78.8564 262.803 79.4055L262.497 79.6973C262.18 79.2343 261.713 78.6192 261.097 77.8518C260.606 77.24 260.202 76.7708 259.886 76.4441L260.192 76.1524C260.538 76.4707 260.839 76.655 261.095 76.7051C261.36 76.7664 261.648 76.6984 261.958 76.5011C262.277 76.315 262.697 75.974 263.218 75.478L270.11 68.9135C270.498 68.544 270.752 68.2432 270.872 68.0111C271.001 67.7902 271.025 67.5616 270.943 67.3253C270.871 67.1001 270.697 66.7943 270.423 66.4078L270.729 66.116C270.984 66.5011 271.357 66.9995 271.848 67.6112C272.67 68.6344 273.39 69.4985 274.01 70.2033L269.257 80.6775L279.134 76.6867L280.085 77.8712C280.995 79.0056 281.711 79.8641 282.233 80.4466L281.927 80.7384Z" fill="black"/>
<path d="M286.837 88.8035C286.549 88.4101 286.313 88.1484 286.129 88.0184C285.945 87.8884 285.736 87.8596 285.5 87.932C285.273 88.0164 284.949 88.2204 284.527 88.544L276.282 94.8804C275.86 95.204 275.575 95.4684 275.426 95.6735C275.284 95.8907 275.239 96.1154 275.29 96.3476C275.341 96.5798 275.488 96.9097 275.731 97.3371L275.399 97.5926C275.01 96.9152 274.436 95.9909 273.678 94.8199C272.841 93.5282 272.207 92.5872 271.775 91.9971L272.107 91.7416C272.388 92.1229 272.62 92.3786 272.803 92.5086C272.995 92.6507 273.205 92.6795 273.432 92.5951C273.667 92.5227 273.996 92.3247 274.417 92.0011L282.663 85.6648C283.084 85.3411 283.365 85.0707 283.507 84.8535C283.656 84.6484 283.701 84.4237 283.643 84.1794C283.592 83.9472 283.449 83.6234 283.213 83.208L283.545 82.9525C283.911 83.5937 284.512 84.5602 285.348 85.852C286.107 87.023 286.714 87.9217 287.169 88.548L286.837 88.8035Z" fill="black"/>
<path d="M284.688 110.859C284.389 111.27 284.209 111.639 284.149 111.967C284.088 112.296 284.107 112.566 284.204 112.778L283.851 113C283.479 112.211 282.98 111.228 282.355 110.051C281.662 108.747 281.128 107.787 280.753 107.17L281.105 106.948C281.386 107.419 281.623 107.731 281.814 107.883C282.016 108.029 282.229 108.031 282.452 107.89C282.663 107.757 282.904 107.503 283.175 107.127L285.451 104.156L283.229 99.9745L281.749 100.242C280.713 100.417 279.967 100.649 279.509 100.937C279.075 101.211 278.844 101.544 278.818 101.937C278.81 102.335 278.943 102.822 279.219 103.399L278.867 103.622C278.44 102.73 278.036 101.926 277.656 101.21C277.343 100.622 277.067 100.147 276.828 99.7857L277.18 99.5637C277.619 100.124 278.527 100.285 279.906 100.047L292.53 97.9244C292.593 98.0725 292.706 98.2999 292.869 98.6068C293.032 98.9137 293.154 99.1273 293.233 99.2478L284.688 110.859ZM285.732 103.799L289.477 98.9025L283.662 99.9059L285.732 103.799Z" fill="black"/>
</svg>
