<svg id="Layer_1" data-name="Layer 1" xmlns="http://www.w3.org/2000/svg" viewBox="0 0 32 32"><defs><style>.cls-1{fill:none;}.cls-2{fill:#231f20;}</style></defs><title>Pinterest-neutral</title><rect class="cls-1" width="32" height="32"/><path class="cls-2" d="M16.54,4.37C10.2,4.37,7,8.92,7,12.72c0,2.3.87,4.34,2.73,5.1a0.46,0.46,0,0,0,.67-0.33c0.06-.23.21-0.83,0.27-1.07a0.65,0.65,0,0,0-.19-0.74,3.85,3.85,0,0,1-.88-2.62,6.33,6.33,0,0,1,6.58-6.4c3.59,0,5.56,2.19,5.56,5.12,0,3.85-1.7,7.1-4.23,7.1a2.07,2.07,0,0,1-2.11-2.57c0.4-1.69,1.18-3.52,1.18-4.74a1.79,1.79,0,0,0-1.8-2C13.34,9.56,12.2,11,12.2,13a5.14,5.14,0,0,0,.43,2.11L10.9,22.4a15,15,0,0,0,0,5.08,0.18,0.18,0,0,0,.32.08,14.25,14.25,0,0,0,2.41-4.37c0.16-.59.94-3.67,0.94-3.67a3.83,3.83,0,0,0,3.26,1.66C22.09,21.18,25,17.26,25,12,25,8.06,21.64,4.37,16.54,4.37Z"/></svg>