<svg xmlns="http://www.w3.org/2000/svg" viewBox="0 0 32 32">
  <g fill="none" fill-rule="evenodd">
    <rect width="32" height="32"/>
    <path fill="#FFF" fill-rule="nonzero" d="M16.54,4.37 C10.2,4.37 7,8.92 7,12.72 C7,15.02 7.87,17.06 9.73,17.82 C9.86063254,17.8896067 10.0167795,17.8920988 10.1495667,17.8266961 C10.282354,17.7612934 10.3755558,17.6359878 10.4,17.49 C10.46,17.26 10.61,16.66 10.67,16.42 C10.7736135,16.158216 10.6969127,15.8594867 10.48,15.68 C9.87249819,14.945687 9.55894354,14.0121493 9.6,13.06 C9.57945174,11.3248375 10.2721379,9.65732239 11.5160653,8.44742339 C12.7599927,7.23752438 14.4460746,6.59134421 16.18,6.66 C19.77,6.66 21.74,8.85 21.74,11.78 C21.74,15.63 20.04,18.88 17.51,18.88 C16.8553593,18.9122717 16.2241137,18.6325989 15.808209,18.126023 C15.3923043,17.619447 15.2408872,16.9458294 15.4,16.31 C15.8,14.62 16.58,12.79 16.58,11.57 C16.6404877,11.0583202 16.4775533,10.5453901 16.1328742,10.1624132 C15.788195,9.77943639 15.2952024,9.5635587 14.78,9.57 C13.34,9.56 12.2,11 12.2,13 C12.1927445,13.7258051 12.3392934,14.4449171 12.63,15.11 L10.9,22.4 C10.6111768,24.0810176 10.6111768,25.7989824 10.9,27.48 C10.9119046,27.5505304 10.9644407,27.6073196 11.0338331,27.6246677 C11.1032254,27.6420158 11.1763051,27.6166305 11.22,27.56 C12.2741345,26.2564366 13.0899761,24.7770889 13.63,23.19 C13.79,22.6 14.57,19.52 14.57,19.52 C15.3050907,20.5900891 16.532222,21.2149474 17.83,21.18 C22.09,21.18 25,17.26 25,12 C25,8.06 21.64,4.37 16.54,4.37 Z"/>
  </g>
</svg>
