<svg id="Layer_1" data-name="Layer 1" xmlns="http://www.w3.org/2000/svg" viewBox="0 0 32 32"><defs><style>.cls-1{fill:none;}.cls-2{fill:#231f20;}</style></defs><title>Skype-neutral</title><rect class="cls-1" width="32" height="32"/><path class="cls-2" d="M5.3,13A5.9,5.9,0,0,1,6.82,6.79a5.91,5.91,0,0,1,6.27-1.46,8.12,8.12,0,0,0,2.56.34,10,10,0,0,1,7.69,3,10.16,10.16,0,0,1,3,7.74A8.75,8.75,0,0,0,26.68,19a5.87,5.87,0,0,1-1.52,6.24,5.84,5.84,0,0,1-6.25,1.46,8.12,8.12,0,0,0-2.56-.34,10,10,0,0,1-7.69-3,10.26,10.26,0,0,1-3-7.8A5.73,5.73,0,0,0,5.3,13Zm8.58-3.26q-3,.75-3,3.49,0,2.57,3,3.29,0.46,0.11,1.26.34l1.27,0.34a7.35,7.35,0,0,1,1.46.46A1.18,1.18,0,0,1,18.34,19a1.61,1.61,0,0,1-1,1.33,4.16,4.16,0,0,1-1.73.18,3.07,3.07,0,0,1-2.24-1.21,4,4,0,0,0-1-1,1,1,0,0,0-1.26.43q-0.92,1.13.75,2.41a6.83,6.83,0,0,0,6.64.93,3.55,3.55,0,0,0,2.76-3.54q0-2.57-2.85-3.42-0.67-.2-1.79-0.46l-1.81-.44a1.25,1.25,0,0,1-1.16-1.35,1.47,1.47,0,0,1,1.47-1.35,3.88,3.88,0,0,1,3.52,1.35,1.06,1.06,0,0,0,1.72,0,1.12,1.12,0,0,0-.15-1.73,6.86,6.86,0,0,0-4.49-1.76Z"/></svg>