<svg xmlns="http://www.w3.org/2000/svg" viewBox="0 0 32 32">
  <g fill="none" fill-rule="evenodd">
    <rect width="32" height="32"/>
    <path fill="#FFF" fill-rule="nonzero" d="M5.3,13 C4.54402796,10.8110802 5.1385094,8.38231061 6.82,6.79 C8.43829087,5.10783942 10.8950688,4.53576673 13.09,5.33 C13.9197318,5.57917331 14.783993,5.693958 15.65,5.67 C18.5257281,5.51604816 21.3282257,6.60935019 23.34,8.67 C25.3964352,10.7051636 26.4876642,13.5205344 26.34,16.41 C26.3230993,17.2854825 26.4377096,18.1585426 26.68,19 C27.4570449,21.1973097 26.8605205,23.6461998 25.16,25.24 C23.5547895,26.9304651 21.098004,27.5043702 18.91,26.7 C18.0802682,26.4508267 17.216007,26.336042 16.35,26.36 C13.4742719,26.5139518 10.6717743,25.4206498 8.66,23.36 C6.59844877,21.303517 5.50783205,18.4679135 5.66,15.56 C5.73657813,14.6903846 5.61344461,13.8147684 5.3,13 Z M13.88,9.74 C11.88,10.24 10.88,11.4033333 10.88,13.23 C10.88,14.9433333 11.88,16.04 13.88,16.52 C14.1866667,16.5933333 14.6066667,16.7066667 15.14,16.86 L16.41,17.2 C16.9113507,17.3020993 17.4006704,17.4562685 17.87,17.66 C18.3079746,17.9518655 18.4997049,18.4985007 18.34,19 C18.279365,19.5945779 17.8943555,20.1066405 17.34,20.33 C16.782459,20.5112316 16.1929079,20.5725722 15.61,20.51 C14.7234014,20.4498683 13.9063547,20.0085171 13.37,19.3 C13.0987056,18.9099191 12.7600809,18.5712944 12.37,18.3 C11.9017545,18.1022919 11.3596877,18.287283 11.11,18.73 C10.4966667,19.4833333 10.7466667,20.2866667 11.86,21.14 C13.7584215,22.5897998 16.2763226,22.9424576 18.5,22.07 C20.1439466,21.6951919 21.2974359,20.2157165 21.26,18.53 C21.26,16.8166667 20.31,15.6766667 18.41,15.11 C17.9633333,14.9766667 17.3666667,14.8233333 16.62,14.65 L14.81,14.21 C14.4762793,14.1870517 14.1656799,14.0313027 13.9476751,13.7775903 C13.7296703,13.5238778 13.6224512,13.1933724 13.65,12.86 C13.7126258,12.0953413 14.3527853,11.5074397 15.12,11.51 C16.4477942,11.3214154 17.7788325,11.8318989 18.64,12.86 C18.8392206,13.1364821 19.1592197,13.3003227 19.5,13.3003227 C19.8407803,13.3003227 20.1607794,13.1364821 20.36,12.86 C20.6016737,12.6255519 20.7250477,12.2948165 20.6959625,11.9593674 C20.6668774,11.6239183 20.4884194,11.3193533 20.21,11.13 C18.9756725,10.019247 17.3803509,9.39390928 15.72,9.37 L13.88,9.74 Z"/>
  </g>
</svg>
