<svg xmlns="http://www.w3.org/2000/svg" viewBox="0 0 32 32">
  <g fill="none" fill-rule="evenodd">
    <rect width="32" height="32"/>
    <path fill="#FFF" fill-rule="nonzero" d="M19.37,23 C18.758814,23.0727894 18.1461655,22.87636 17.69125,22.4617534 C17.2363345,22.0471469 16.9840675,21.455299 17,20.84 L17,14 L22,14 L22,11 L17,11 L17,5 L14.14,5 C14.1706483,5.04982489 14.1942079,5.1036755 14.21,5.16 C13.9883004,7.75233773 12.3759176,10.0196315 10,11.08 L10,14 L12,14 L12,21.12 C12,23.59 13.6,27.12 18.5,27 C20.15,27 22.02,26.29 22.42,25.71 L21.23,22.57 C20.6433714,22.8314631 20.0118628,22.9774571 19.37,23 L19.37,23 Z"/>
  </g>
</svg>
