<svg xmlns="http://www.w3.org/2000/svg" viewBox="0 0 32 32">
  <g fill="none" fill-rule="evenodd">
    <rect width="32" height="32"/>
    <path fill="#FFF" fill-rule="nonzero" d="M22,2.17 C21.3888698,3.07580913 20.6240111,3.86774245 19.74,4.51 C19.74,4.72333333 19.74,4.91666667 19.74,5.09 C19.7673676,8.29063525 18.5851926,11.3835766 16.43,13.75 C14.0494733,16.5089094 10.5523629,18.0480788 6.91,17.94 C4.45653694,17.9517507 2.05369293,17.2423727 -8.8817842e-16,15.9 C0.357239406,15.9583851 0.71811388,15.9917994 1.08,16 C3.12232949,16.0041506 5.10236532,15.2969949 6.68,14 C5.72774314,14.0002068 4.80248269,13.6835777 4.05,13.1 C3.29775794,12.5432725 2.74114869,11.7626192 2.46,10.87 C2.74027272,10.9227319 3.02481021,10.9495119 3.31,10.95 C3.7147242,10.9507906 4.11792346,10.9003907 4.51,10.8 C2.43601219,10.3720065 0.961112403,8.52733125 1,6.41 L1,6.35 C1.62666448,6.65778705 2.30462284,6.84761539 3,6.91 C1.7205353,6.09843539 0.961182321,4.67464855 1,3.16 C0.988338567,2.36080562 1.19214297,1.5732225 1.59,0.88 C3.83120761,3.75058527 7.2301218,5.47934335 10.87,5.6 C10.8005944,5.27108598 10.7637499,4.93613615 10.76,4.6 C10.76,2.10919578 12.7791958,0.09 15.27,0.09 C16.5218331,0.0685990365 17.7216502,0.590100096 18.56,1.52 C19.573295,1.31750239 20.5441491,0.942015228 21.43,0.41 C21.1049121,1.46957425 20.3902228,2.36650929 19.43,2.92 C20.3185636,2.79622868 21.1843353,2.54357155 22,2.17 Z" transform="translate(5 7)"/>
  </g>
</svg>
