<svg id="Layer_1" data-name="Layer 1" xmlns="http://www.w3.org/2000/svg" viewBox="0 0 32 32"><defs><style>.cls-1{fill:none;}.cls-2{fill:#231f20;fill-rule:evenodd;}</style></defs><title>Vimeo-neutral</title><rect class="cls-1" width="32" height="32"/><path class="cls-2" d="M25.91,10.59a2.87,2.87,0,0,0-.37-2.35c-0.72-.91-2.26-0.95-3.31-0.79a6.94,6.94,0,0,0-4.74,4.47c1.75-.13,2.66.13,2.49,2a7.06,7.06,0,0,1-.93,2.53c-0.52,1-1.51,2.89-2.79,1.51s-1.07-3.61-1.34-5.19a21.73,21.73,0,0,0-.59-2.9A3,3,0,0,0,12.81,8a3.12,3.12,0,0,0-2.23.45A40.27,40.27,0,0,0,6,12.1v0.11a1.79,1.79,0,0,0,.82.82c1,0.15,2-1,2.72.2a12,12,0,0,1,.82,2.26c0.36,1,.64,2.13.93,3.31,0.5,2,1.11,5,2.83,5.69A3.71,3.71,0,0,0,17,24a16,16,0,0,0,4.43-4.2A28.58,28.58,0,0,0,25.91,10.59Z"/></svg>