<svg xmlns="http://www.w3.org/2000/svg" viewBox="0 0 32 32">
  <g fill="none" fill-rule="evenodd">
    <rect width="32" height="32"/>
    <path fill="#FFF" d="M25.91,10.59 C26.1324118,9.7900247 25.9974651,8.93293086 25.54,8.24 C24.82,7.33 23.28,7.29 22.23,7.45 C20.0053187,8.05966996 18.2289483,9.73485475 17.49,11.92 C19.24,11.79 20.15,12.05 19.98,13.92 C19.8353639,14.815235 19.5196099,15.6742217 19.05,16.45 C18.53,17.45 17.54,19.34 16.26,17.96 C14.98,16.58 15.19,14.35 14.92,12.77 C14.7894635,11.791049 14.5923398,10.8221359 14.33,9.87 C14.1069604,9.06162194 13.5557564,8.38349592 12.81,8 C12.0365234,7.86399467 11.240206,8.02468653 10.58,8.45 C8.96676869,9.55389425 7.43605514,10.7737861 6,12.1 L6,12.21 C6.17476761,12.5667533 6.46324673,12.8552324 6.82,13.03 C7.82,13.18 8.82,12.03 9.54,13.23 C9.88829844,13.9539841 10.1630101,14.7111163 10.36,15.49 C10.72,16.49 11,17.62 11.29,18.8 C11.79,20.8 12.4,23.8 14.12,24.49 C15.106613,24.7274159 16.1474141,24.5503352 17,24 C18.7325288,22.8972819 20.2365649,21.4713335 21.43,19.8 C23.4657143,17.0247989 24.9834119,13.9047109 25.91,10.59 Z"/>
  </g>
</svg>
